<mxfile host="app.diagrams.net" modified="2021-02-20T03:03:43.520Z" agent="5.0 (Windows NT 6.1; Win64; x64) AppleWebKit/537.36 (KHTML, like Gecko) Chrome/87.0.4280.88 Safari/537.36 Edg/87.0.664.66" etag="tfwWh3et7BTGe6zAYQcd" version="14.4.2" type="github">
  <diagram id="eIv0W7jmToX0OtYS6w2h" name="Page-1">
    <mxGraphModel dx="1108" dy="721" grid="1" gridSize="10" guides="1" tooltips="1" connect="1" arrows="1" fold="1" page="1" pageScale="1" pageWidth="827" pageHeight="1169" math="0" shadow="0">
      <root>
        <mxCell id="0" />
        <mxCell id="1" parent="0" />
        <mxCell id="8VEoWzWvntJiqpH7d6k4-188" style="edgeStyle=orthogonalEdgeStyle;rounded=0;orthogonalLoop=1;jettySize=auto;html=1;exitX=0.5;exitY=1;exitDx=0;exitDy=0;fillColor=#ffe6cc;strokeColor=#d79b00;entryX=0.5;entryY=0;entryDx=0;entryDy=0;" edge="1" parent="1" source="8VEoWzWvntJiqpH7d6k4-141" target="8VEoWzWvntJiqpH7d6k4-161">
          <mxGeometry relative="1" as="geometry">
            <mxPoint x="190" y="530" as="sourcePoint" />
            <mxPoint x="190" y="650" as="targetPoint" />
          </mxGeometry>
        </mxCell>
        <mxCell id="8VEoWzWvntJiqpH7d6k4-189" style="edgeStyle=orthogonalEdgeStyle;rounded=0;orthogonalLoop=1;jettySize=auto;html=1;exitX=0.5;exitY=1;exitDx=0;exitDy=0;fillColor=#ffe6cc;strokeColor=#d79b00;" edge="1" parent="1" source="8VEoWzWvntJiqpH7d6k4-142" target="8VEoWzWvntJiqpH7d6k4-162">
          <mxGeometry relative="1" as="geometry">
            <mxPoint x="200" y="540" as="sourcePoint" />
            <mxPoint x="200" y="660" as="targetPoint" />
          </mxGeometry>
        </mxCell>
        <mxCell id="8VEoWzWvntJiqpH7d6k4-190" style="edgeStyle=orthogonalEdgeStyle;rounded=0;orthogonalLoop=1;jettySize=auto;html=1;exitX=0.5;exitY=1;exitDx=0;exitDy=0;fillColor=#ffe6cc;strokeColor=#d79b00;" edge="1" parent="1" source="8VEoWzWvntJiqpH7d6k4-143" target="8VEoWzWvntJiqpH7d6k4-163">
          <mxGeometry relative="1" as="geometry">
            <mxPoint x="210" y="550" as="sourcePoint" />
            <mxPoint x="210" y="670" as="targetPoint" />
          </mxGeometry>
        </mxCell>
        <mxCell id="8VEoWzWvntJiqpH7d6k4-191" style="edgeStyle=orthogonalEdgeStyle;rounded=0;orthogonalLoop=1;jettySize=auto;html=1;exitX=0.5;exitY=1;exitDx=0;exitDy=0;fillColor=#ffe6cc;strokeColor=#d79b00;entryX=0.5;entryY=0;entryDx=0;entryDy=0;" edge="1" parent="1" source="8VEoWzWvntJiqpH7d6k4-123" target="8VEoWzWvntJiqpH7d6k4-164">
          <mxGeometry relative="1" as="geometry">
            <mxPoint x="220" y="560" as="sourcePoint" />
            <mxPoint x="220" y="680" as="targetPoint" />
          </mxGeometry>
        </mxCell>
        <mxCell id="8VEoWzWvntJiqpH7d6k4-192" style="edgeStyle=orthogonalEdgeStyle;rounded=0;orthogonalLoop=1;jettySize=auto;html=1;exitX=0.5;exitY=1;exitDx=0;exitDy=0;fillColor=#ffe6cc;strokeColor=#d79b00;" edge="1" parent="1" source="8VEoWzWvntJiqpH7d6k4-112" target="8VEoWzWvntJiqpH7d6k4-165">
          <mxGeometry relative="1" as="geometry">
            <mxPoint x="230" y="570" as="sourcePoint" />
            <mxPoint x="230" y="690" as="targetPoint" />
          </mxGeometry>
        </mxCell>
        <mxCell id="8VEoWzWvntJiqpH7d6k4-193" style="edgeStyle=orthogonalEdgeStyle;rounded=0;orthogonalLoop=1;jettySize=auto;html=1;exitX=0.5;exitY=1;exitDx=0;exitDy=0;fillColor=#ffe6cc;strokeColor=#d79b00;entryX=0.5;entryY=0;entryDx=0;entryDy=0;" edge="1" parent="1" source="8VEoWzWvntJiqpH7d6k4-113" target="8VEoWzWvntJiqpH7d6k4-166">
          <mxGeometry relative="1" as="geometry">
            <mxPoint x="240" y="580" as="sourcePoint" />
            <mxPoint x="240" y="700" as="targetPoint" />
          </mxGeometry>
        </mxCell>
        <mxCell id="8VEoWzWvntJiqpH7d6k4-194" style="edgeStyle=orthogonalEdgeStyle;rounded=0;orthogonalLoop=1;jettySize=auto;html=1;exitX=0.5;exitY=1;exitDx=0;exitDy=0;fillColor=#ffe6cc;strokeColor=#d79b00;entryX=0.5;entryY=0;entryDx=0;entryDy=0;" edge="1" parent="1" source="8VEoWzWvntJiqpH7d6k4-114" target="8VEoWzWvntJiqpH7d6k4-167">
          <mxGeometry relative="1" as="geometry">
            <mxPoint x="250" y="590" as="sourcePoint" />
            <mxPoint x="250" y="710" as="targetPoint" />
          </mxGeometry>
        </mxCell>
        <mxCell id="8VEoWzWvntJiqpH7d6k4-195" style="edgeStyle=orthogonalEdgeStyle;rounded=0;orthogonalLoop=1;jettySize=auto;html=1;exitX=0.5;exitY=1;exitDx=0;exitDy=0;fillColor=#ffe6cc;strokeColor=#d79b00;" edge="1" parent="1" source="8VEoWzWvntJiqpH7d6k4-115" target="8VEoWzWvntJiqpH7d6k4-168">
          <mxGeometry relative="1" as="geometry">
            <mxPoint x="260" y="600" as="sourcePoint" />
            <mxPoint x="260" y="720" as="targetPoint" />
          </mxGeometry>
        </mxCell>
        <mxCell id="8VEoWzWvntJiqpH7d6k4-196" style="edgeStyle=orthogonalEdgeStyle;rounded=0;orthogonalLoop=1;jettySize=auto;html=1;exitX=0.5;exitY=1;exitDx=0;exitDy=0;fillColor=#ffe6cc;strokeColor=#d79b00;entryX=0.5;entryY=0;entryDx=0;entryDy=0;" edge="1" parent="1" source="8VEoWzWvntJiqpH7d6k4-116" target="8VEoWzWvntJiqpH7d6k4-169">
          <mxGeometry relative="1" as="geometry">
            <mxPoint x="270" y="610" as="sourcePoint" />
            <mxPoint x="270" y="730" as="targetPoint" />
          </mxGeometry>
        </mxCell>
        <mxCell id="8VEoWzWvntJiqpH7d6k4-197" style="edgeStyle=orthogonalEdgeStyle;rounded=0;orthogonalLoop=1;jettySize=auto;html=1;exitX=0.5;exitY=1;exitDx=0;exitDy=0;fillColor=#ffe6cc;strokeColor=#d79b00;entryX=0.5;entryY=0;entryDx=0;entryDy=0;" edge="1" parent="1" source="8VEoWzWvntJiqpH7d6k4-117" target="8VEoWzWvntJiqpH7d6k4-170">
          <mxGeometry relative="1" as="geometry">
            <mxPoint x="280" y="620" as="sourcePoint" />
            <mxPoint x="280" y="740" as="targetPoint" />
          </mxGeometry>
        </mxCell>
        <mxCell id="8VEoWzWvntJiqpH7d6k4-198" style="edgeStyle=orthogonalEdgeStyle;rounded=0;orthogonalLoop=1;jettySize=auto;html=1;exitX=0.5;exitY=1;exitDx=0;exitDy=0;fillColor=#ffe6cc;strokeColor=#d79b00;" edge="1" parent="1" source="8VEoWzWvntJiqpH7d6k4-118" target="8VEoWzWvntJiqpH7d6k4-150">
          <mxGeometry relative="1" as="geometry">
            <mxPoint x="290" y="630" as="sourcePoint" />
            <mxPoint x="290" y="750" as="targetPoint" />
          </mxGeometry>
        </mxCell>
        <mxCell id="8VEoWzWvntJiqpH7d6k4-199" style="edgeStyle=orthogonalEdgeStyle;rounded=0;orthogonalLoop=1;jettySize=auto;html=1;exitX=0.5;exitY=1;exitDx=0;exitDy=0;fillColor=#ffe6cc;strokeColor=#d79b00;" edge="1" parent="1" source="8VEoWzWvntJiqpH7d6k4-120" target="8VEoWzWvntJiqpH7d6k4-152">
          <mxGeometry relative="1" as="geometry">
            <mxPoint x="300" y="640" as="sourcePoint" />
            <mxPoint x="300" y="760" as="targetPoint" />
          </mxGeometry>
        </mxCell>
        <mxCell id="8VEoWzWvntJiqpH7d6k4-200" style="edgeStyle=orthogonalEdgeStyle;rounded=0;orthogonalLoop=1;jettySize=auto;html=1;exitX=0.5;exitY=1;exitDx=0;exitDy=0;fillColor=#ffe6cc;strokeColor=#d79b00;entryX=0.5;entryY=0;entryDx=0;entryDy=0;" edge="1" parent="1" source="8VEoWzWvntJiqpH7d6k4-119" target="8VEoWzWvntJiqpH7d6k4-151">
          <mxGeometry relative="1" as="geometry">
            <mxPoint x="310" y="650" as="sourcePoint" />
            <mxPoint x="960" y="640" as="targetPoint" />
          </mxGeometry>
        </mxCell>
        <mxCell id="8VEoWzWvntJiqpH7d6k4-201" style="edgeStyle=orthogonalEdgeStyle;rounded=0;orthogonalLoop=1;jettySize=auto;html=1;exitX=0.5;exitY=1;exitDx=0;exitDy=0;fillColor=#ffe6cc;strokeColor=#d79b00;entryX=0.5;entryY=0;entryDx=0;entryDy=0;" edge="1" parent="1" source="8VEoWzWvntJiqpH7d6k4-121" target="8VEoWzWvntJiqpH7d6k4-153">
          <mxGeometry relative="1" as="geometry">
            <mxPoint x="320" y="660" as="sourcePoint" />
            <mxPoint x="1020" y="640" as="targetPoint" />
          </mxGeometry>
        </mxCell>
        <mxCell id="8VEoWzWvntJiqpH7d6k4-202" style="edgeStyle=orthogonalEdgeStyle;rounded=0;orthogonalLoop=1;jettySize=auto;html=1;exitX=0.5;exitY=1;exitDx=0;exitDy=0;fillColor=#ffe6cc;strokeColor=#d79b00;entryX=0.5;entryY=0;entryDx=0;entryDy=0;" edge="1" parent="1" source="8VEoWzWvntJiqpH7d6k4-122" target="8VEoWzWvntJiqpH7d6k4-154">
          <mxGeometry relative="1" as="geometry">
            <mxPoint x="330" y="670" as="sourcePoint" />
            <mxPoint x="1080" y="640" as="targetPoint" />
          </mxGeometry>
        </mxCell>
        <mxCell id="8VEoWzWvntJiqpH7d6k4-187" style="edgeStyle=orthogonalEdgeStyle;rounded=0;orthogonalLoop=1;jettySize=auto;html=1;exitX=0.5;exitY=1;exitDx=0;exitDy=0;fillColor=#ffe6cc;strokeColor=#d79b00;entryX=0.5;entryY=0;entryDx=0;entryDy=0;" edge="1" parent="1" source="8VEoWzWvntJiqpH7d6k4-140" target="8VEoWzWvntJiqpH7d6k4-160">
          <mxGeometry relative="1" as="geometry">
            <mxPoint x="190" y="290" as="sourcePoint" />
            <mxPoint x="190" y="490" as="targetPoint" />
          </mxGeometry>
        </mxCell>
        <mxCell id="8VEoWzWvntJiqpH7d6k4-90" value="" style="endArrow=classic;html=1;fillColor=#ffe6cc;strokeColor=#d79b00;exitX=0.5;exitY=1;exitDx=0;exitDy=0;entryX=0.5;entryY=0;entryDx=0;entryDy=0;" edge="1" parent="1" source="aoWRR9x3uaTq7NgfMGxi-12" target="8VEoWzWvntJiqpH7d6k4-115">
          <mxGeometry width="50" height="50" relative="1" as="geometry">
            <mxPoint x="330" y="530" as="sourcePoint" />
            <mxPoint x="414" y="600" as="targetPoint" />
          </mxGeometry>
        </mxCell>
        <mxCell id="8VEoWzWvntJiqpH7d6k4-99" value="" style="endArrow=classic;html=1;fillColor=#ffe6cc;strokeColor=#d79b00;exitX=0.5;exitY=1;exitDx=0;exitDy=0;entryX=0.5;entryY=0;entryDx=0;entryDy=0;" edge="1" parent="1" source="aoWRR9x3uaTq7NgfMGxi-15" target="8VEoWzWvntJiqpH7d6k4-118">
          <mxGeometry width="50" height="50" relative="1" as="geometry">
            <mxPoint x="710" y="560" as="sourcePoint" />
            <mxPoint x="794" y="630" as="targetPoint" />
          </mxGeometry>
        </mxCell>
        <mxCell id="8VEoWzWvntJiqpH7d6k4-100" value="" style="endArrow=classic;html=1;fillColor=#ffe6cc;strokeColor=#d79b00;exitX=0.5;exitY=1;exitDx=0;exitDy=0;entryX=0.5;entryY=0;entryDx=0;entryDy=0;" edge="1" parent="1" source="aoWRR9x3uaTq7NgfMGxi-18" target="8VEoWzWvntJiqpH7d6k4-121">
          <mxGeometry width="50" height="50" relative="1" as="geometry">
            <mxPoint x="980" y="530" as="sourcePoint" />
            <mxPoint x="1064" y="600" as="targetPoint" />
          </mxGeometry>
        </mxCell>
        <mxCell id="8VEoWzWvntJiqpH7d6k4-101" value="" style="endArrow=classic;html=1;fillColor=#ffe6cc;strokeColor=#d79b00;exitX=0.5;exitY=1;exitDx=0;exitDy=0;entryX=0.5;entryY=0;entryDx=0;entryDy=0;" edge="1" parent="1" source="aoWRR9x3uaTq7NgfMGxi-14" target="8VEoWzWvntJiqpH7d6k4-117">
          <mxGeometry width="50" height="50" relative="1" as="geometry">
            <mxPoint x="716" y="570" as="sourcePoint" />
            <mxPoint x="800" y="640" as="targetPoint" />
          </mxGeometry>
        </mxCell>
        <mxCell id="8VEoWzWvntJiqpH7d6k4-102" value="" style="endArrow=classic;html=1;fillColor=#ffe6cc;strokeColor=#d79b00;exitX=0.5;exitY=1;exitDx=0;exitDy=0;entryX=0.5;entryY=0;entryDx=0;entryDy=0;" edge="1" parent="1" source="aoWRR9x3uaTq7NgfMGxi-17" target="8VEoWzWvntJiqpH7d6k4-120">
          <mxGeometry width="50" height="50" relative="1" as="geometry">
            <mxPoint x="850" y="570" as="sourcePoint" />
            <mxPoint x="934" y="640" as="targetPoint" />
          </mxGeometry>
        </mxCell>
        <mxCell id="8VEoWzWvntJiqpH7d6k4-103" value="" style="endArrow=classic;html=1;fillColor=#ffe6cc;strokeColor=#d79b00;exitX=0.5;exitY=1;exitDx=0;exitDy=0;entryX=0.5;entryY=0;entryDx=0;entryDy=0;" edge="1" parent="1" source="aoWRR9x3uaTq7NgfMGxi-16" target="8VEoWzWvntJiqpH7d6k4-119">
          <mxGeometry width="50" height="50" relative="1" as="geometry">
            <mxPoint x="956" y="580" as="sourcePoint" />
            <mxPoint x="1040" y="650" as="targetPoint" />
          </mxGeometry>
        </mxCell>
        <mxCell id="8VEoWzWvntJiqpH7d6k4-104" value="" style="endArrow=classic;html=1;fillColor=#ffe6cc;strokeColor=#d79b00;exitX=0.5;exitY=1;exitDx=0;exitDy=0;entryX=0.5;entryY=0;entryDx=0;entryDy=0;" edge="1" parent="1" source="aoWRR9x3uaTq7NgfMGxi-19" target="8VEoWzWvntJiqpH7d6k4-122">
          <mxGeometry width="50" height="50" relative="1" as="geometry">
            <mxPoint x="900" y="540" as="sourcePoint" />
            <mxPoint x="984" y="610" as="targetPoint" />
          </mxGeometry>
        </mxCell>
        <mxCell id="8VEoWzWvntJiqpH7d6k4-105" value="" style="endArrow=classic;html=1;fillColor=#ffe6cc;strokeColor=#d79b00;exitX=0.5;exitY=1;exitDx=0;exitDy=0;entryX=0.5;entryY=0;entryDx=0;entryDy=0;" edge="1" parent="1" source="aoWRR9x3uaTq7NgfMGxi-13" target="8VEoWzWvntJiqpH7d6k4-116">
          <mxGeometry width="50" height="50" relative="1" as="geometry">
            <mxPoint x="716" y="550" as="sourcePoint" />
            <mxPoint x="800" y="620" as="targetPoint" />
          </mxGeometry>
        </mxCell>
        <mxCell id="8VEoWzWvntJiqpH7d6k4-91" value="" style="endArrow=classic;html=1;fillColor=#ffe6cc;strokeColor=#d79b00;exitX=0.5;exitY=1;exitDx=0;exitDy=0;entryX=0.5;entryY=0;entryDx=0;entryDy=0;" edge="1" parent="1" source="aoWRR9x3uaTq7NgfMGxi-9" target="8VEoWzWvntJiqpH7d6k4-112">
          <mxGeometry width="50" height="50" relative="1" as="geometry">
            <mxPoint x="500" y="540" as="sourcePoint" />
            <mxPoint x="584" y="610" as="targetPoint" />
          </mxGeometry>
        </mxCell>
        <mxCell id="8VEoWzWvntJiqpH7d6k4-92" value="" style="endArrow=classic;html=1;fillColor=#ffe6cc;strokeColor=#d79b00;entryX=0.5;entryY=0;entryDx=0;entryDy=0;" edge="1" parent="1" source="aoWRR9x3uaTq7NgfMGxi-11" target="8VEoWzWvntJiqpH7d6k4-114">
          <mxGeometry width="50" height="50" relative="1" as="geometry">
            <mxPoint x="640" y="610" as="sourcePoint" />
            <mxPoint x="724" y="680" as="targetPoint" />
          </mxGeometry>
        </mxCell>
        <mxCell id="8VEoWzWvntJiqpH7d6k4-93" value="" style="endArrow=classic;html=1;fillColor=#ffe6cc;strokeColor=#d79b00;exitX=0.5;exitY=1;exitDx=0;exitDy=0;entryX=0.5;entryY=0;entryDx=0;entryDy=0;" edge="1" parent="1" source="aoWRR9x3uaTq7NgfMGxi-10" target="8VEoWzWvntJiqpH7d6k4-113">
          <mxGeometry width="50" height="50" relative="1" as="geometry">
            <mxPoint x="690" y="580" as="sourcePoint" />
            <mxPoint x="774" y="650" as="targetPoint" />
          </mxGeometry>
        </mxCell>
        <mxCell id="8VEoWzWvntJiqpH7d6k4-94" value="" style="endArrow=classic;html=1;fillColor=#ffe6cc;strokeColor=#d79b00;exitX=0.5;exitY=1;exitDx=0;exitDy=0;entryX=0.5;entryY=0;entryDx=0;entryDy=0;" edge="1" parent="1" source="aoWRR9x3uaTq7NgfMGxi-20" target="8VEoWzWvntJiqpH7d6k4-123">
          <mxGeometry width="50" height="50" relative="1" as="geometry">
            <mxPoint x="640" y="560" as="sourcePoint" />
            <mxPoint x="724" y="630" as="targetPoint" />
          </mxGeometry>
        </mxCell>
        <mxCell id="8VEoWzWvntJiqpH7d6k4-95" value="" style="endArrow=classic;html=1;fillColor=#ffe6cc;strokeColor=#d79b00;exitX=0.5;exitY=1;exitDx=0;exitDy=0;entryX=0.5;entryY=0;entryDx=0;entryDy=0;" edge="1" parent="1" source="aoWRR9x3uaTq7NgfMGxi-8" target="8VEoWzWvntJiqpH7d6k4-111">
          <mxGeometry width="50" height="50" relative="1" as="geometry">
            <mxPoint x="596" y="550" as="sourcePoint" />
            <mxPoint x="680" y="620" as="targetPoint" />
          </mxGeometry>
        </mxCell>
        <mxCell id="8VEoWzWvntJiqpH7d6k4-96" value="" style="endArrow=classic;html=1;fillColor=#ffe6cc;strokeColor=#d79b00;exitX=0.5;exitY=1;exitDx=0;exitDy=0;entryX=0.5;entryY=0;entryDx=0;entryDy=0;" edge="1" parent="1" source="aoWRR9x3uaTq7NgfMGxi-7" target="8VEoWzWvntJiqpH7d6k4-110">
          <mxGeometry width="50" height="50" relative="1" as="geometry">
            <mxPoint x="620" y="550" as="sourcePoint" />
            <mxPoint x="704" y="620" as="targetPoint" />
          </mxGeometry>
        </mxCell>
        <mxCell id="8VEoWzWvntJiqpH7d6k4-97" value="" style="endArrow=classic;html=1;fillColor=#ffe6cc;strokeColor=#d79b00;exitX=0.5;exitY=1;exitDx=0;exitDy=0;entryX=0.5;entryY=0;entryDx=0;entryDy=0;" edge="1" parent="1" source="aoWRR9x3uaTq7NgfMGxi-6" target="8VEoWzWvntJiqpH7d6k4-109">
          <mxGeometry width="50" height="50" relative="1" as="geometry">
            <mxPoint x="656" y="540" as="sourcePoint" />
            <mxPoint x="740" y="610" as="targetPoint" />
          </mxGeometry>
        </mxCell>
        <mxCell id="8VEoWzWvntJiqpH7d6k4-88" style="edgeStyle=orthogonalEdgeStyle;rounded=0;orthogonalLoop=1;jettySize=auto;html=1;exitX=0.5;exitY=1;exitDx=0;exitDy=0;fillColor=#ffe6cc;strokeColor=#d79b00;" edge="1" parent="1" source="aoWRR9x3uaTq7NgfMGxi-2" target="8VEoWzWvntJiqpH7d6k4-108">
          <mxGeometry relative="1" as="geometry" />
        </mxCell>
        <mxCell id="aoWRR9x3uaTq7NgfMGxi-2" value="《" style="shape=ext;double=1;rounded=0;whiteSpace=wrap;html=1;fillColor=#d5e8d4;strokeColor=none;" parent="1" vertex="1">
          <mxGeometry x="160" y="240" width="40" height="40" as="geometry" />
        </mxCell>
        <mxCell id="aoWRR9x3uaTq7NgfMGxi-6" value="战" style="shape=ext;double=1;rounded=0;whiteSpace=wrap;html=1;fillColor=#d5e8d4;strokeColor=none;" parent="1" vertex="1">
          <mxGeometry x="220" y="240" width="40" height="40" as="geometry" />
        </mxCell>
        <mxCell id="aoWRR9x3uaTq7NgfMGxi-7" value="狼" style="shape=ext;double=1;rounded=0;whiteSpace=wrap;html=1;fillColor=#d5e8d4;strokeColor=none;" parent="1" vertex="1">
          <mxGeometry x="280" y="240" width="40" height="40" as="geometry" />
        </mxCell>
        <mxCell id="aoWRR9x3uaTq7NgfMGxi-8" value="》" style="shape=ext;double=1;rounded=0;whiteSpace=wrap;html=1;fillColor=#d5e8d4;strokeColor=none;" parent="1" vertex="1">
          <mxGeometry x="340" y="240" width="40" height="40" as="geometry" />
        </mxCell>
        <mxCell id="aoWRR9x3uaTq7NgfMGxi-9" value="主" style="shape=ext;double=1;rounded=0;whiteSpace=wrap;html=1;fillColor=#d5e8d4;strokeColor=none;" parent="1" vertex="1">
          <mxGeometry x="460" y="240" width="40" height="40" as="geometry" />
        </mxCell>
        <mxCell id="aoWRR9x3uaTq7NgfMGxi-10" value="演" style="shape=ext;double=1;rounded=0;whiteSpace=wrap;html=1;fillColor=#d5e8d4;strokeColor=none;" parent="1" vertex="1">
          <mxGeometry x="520" y="240" width="40" height="40" as="geometry" />
        </mxCell>
        <mxCell id="aoWRR9x3uaTq7NgfMGxi-11" value="吴" style="shape=ext;double=1;rounded=0;whiteSpace=wrap;html=1;fillColor=#d5e8d4;strokeColor=none;" parent="1" vertex="1">
          <mxGeometry x="580" y="240" width="40" height="40" as="geometry" />
        </mxCell>
        <mxCell id="aoWRR9x3uaTq7NgfMGxi-12" value="京" style="shape=ext;double=1;rounded=0;whiteSpace=wrap;html=1;fillColor=#d5e8d4;strokeColor=none;" parent="1" vertex="1">
          <mxGeometry x="640" y="240" width="40" height="40" as="geometry" />
        </mxCell>
        <mxCell id="aoWRR9x3uaTq7NgfMGxi-13" value="生" style="shape=ext;double=1;rounded=0;whiteSpace=wrap;html=1;fillColor=#d5e8d4;strokeColor=none;" parent="1" vertex="1">
          <mxGeometry x="700" y="240" width="40" height="40" as="geometry" />
        </mxCell>
        <mxCell id="aoWRR9x3uaTq7NgfMGxi-14" value="于" style="shape=ext;double=1;rounded=0;whiteSpace=wrap;html=1;fillColor=#d5e8d4;strokeColor=none;" parent="1" vertex="1">
          <mxGeometry x="760" y="240" width="40" height="40" as="geometry" />
        </mxCell>
        <mxCell id="aoWRR9x3uaTq7NgfMGxi-15" value="1" style="shape=ext;double=1;rounded=0;whiteSpace=wrap;html=1;fillColor=#d5e8d4;strokeColor=none;" parent="1" vertex="1">
          <mxGeometry x="820" y="240" width="40" height="40" as="geometry" />
        </mxCell>
        <mxCell id="aoWRR9x3uaTq7NgfMGxi-16" value="7" style="shape=ext;double=1;rounded=0;whiteSpace=wrap;html=1;fillColor=#d5e8d4;strokeColor=none;" parent="1" vertex="1">
          <mxGeometry x="940" y="240" width="40" height="40" as="geometry" />
        </mxCell>
        <mxCell id="aoWRR9x3uaTq7NgfMGxi-17" value="9" style="shape=ext;double=1;rounded=0;whiteSpace=wrap;html=1;fillColor=#d5e8d4;strokeColor=none;" parent="1" vertex="1">
          <mxGeometry x="880" y="240" width="40" height="40" as="geometry" />
        </mxCell>
        <mxCell id="aoWRR9x3uaTq7NgfMGxi-18" value="4" style="shape=ext;double=1;rounded=0;whiteSpace=wrap;html=1;fillColor=#d5e8d4;strokeColor=none;" parent="1" vertex="1">
          <mxGeometry x="1000" y="240" width="40" height="40" as="geometry" />
        </mxCell>
        <mxCell id="aoWRR9x3uaTq7NgfMGxi-19" value="年" style="shape=ext;double=1;rounded=0;whiteSpace=wrap;html=1;fillColor=#d5e8d4;strokeColor=none;" parent="1" vertex="1">
          <mxGeometry x="1060" y="240" width="40" height="40" as="geometry" />
        </mxCell>
        <mxCell id="aoWRR9x3uaTq7NgfMGxi-20" value="的" style="shape=ext;double=1;rounded=0;whiteSpace=wrap;html=1;fillColor=#d5e8d4;strokeColor=none;" parent="1" vertex="1">
          <mxGeometry x="400" y="240" width="40" height="40" as="geometry" />
        </mxCell>
        <mxCell id="8VEoWzWvntJiqpH7d6k4-2" style="edgeStyle=orthogonalEdgeStyle;rounded=0;orthogonalLoop=1;jettySize=auto;html=1;exitX=1;exitY=0.25;exitDx=0;exitDy=0;entryX=0;entryY=0.25;entryDx=0;entryDy=0;" edge="1" parent="1" source="aoWRR9x3uaTq7NgfMGxi-21">
          <mxGeometry relative="1" as="geometry">
            <mxPoint x="220" y="370" as="targetPoint" />
          </mxGeometry>
        </mxCell>
        <mxCell id="aoWRR9x3uaTq7NgfMGxi-21" value="&lt;font style=&quot;font-size: 8px&quot;&gt;Bi-LSTM&lt;/font&gt;" style="shape=ext;double=1;rounded=0;whiteSpace=wrap;html=1;fillColor=#d5e8d4;strokeColor=none;" parent="1" vertex="1">
          <mxGeometry x="160" y="360" width="40" height="40" as="geometry" />
        </mxCell>
        <mxCell id="aoWRR9x3uaTq7NgfMGxi-25" value="&lt;span style=&quot;font-size: 8px&quot;&gt;Bi-LSTM&lt;/span&gt;" style="shape=ext;double=1;rounded=0;whiteSpace=wrap;html=1;fillColor=#d5e8d4;strokeColor=none;" parent="1" vertex="1">
          <mxGeometry x="460" y="360" width="40" height="40" as="geometry" />
        </mxCell>
        <mxCell id="aoWRR9x3uaTq7NgfMGxi-26" value="&lt;span style=&quot;font-size: 8px&quot;&gt;Bi-LSTM&lt;/span&gt;" style="shape=ext;double=1;rounded=0;whiteSpace=wrap;html=1;fillColor=#d5e8d4;strokeColor=none;" parent="1" vertex="1">
          <mxGeometry x="520" y="360" width="40" height="40" as="geometry" />
        </mxCell>
        <mxCell id="aoWRR9x3uaTq7NgfMGxi-27" value="&lt;span style=&quot;font-size: 8px&quot;&gt;Bi-LSTM&lt;/span&gt;" style="shape=ext;double=1;rounded=0;whiteSpace=wrap;html=1;fillColor=#d5e8d4;strokeColor=none;" parent="1" vertex="1">
          <mxGeometry x="580" y="360" width="40" height="40" as="geometry" />
        </mxCell>
        <mxCell id="aoWRR9x3uaTq7NgfMGxi-28" value="&lt;span style=&quot;font-size: 8px&quot;&gt;Bi-LSTM&lt;/span&gt;" style="shape=ext;double=1;rounded=0;whiteSpace=wrap;html=1;fillColor=#d5e8d4;strokeColor=none;" parent="1" vertex="1">
          <mxGeometry x="640" y="360" width="40" height="40" as="geometry" />
        </mxCell>
        <mxCell id="aoWRR9x3uaTq7NgfMGxi-29" value="&lt;span style=&quot;font-size: 8px&quot;&gt;Bi-LSTM&lt;/span&gt;" style="shape=ext;double=1;rounded=0;whiteSpace=wrap;html=1;fillColor=#d5e8d4;strokeColor=none;" parent="1" vertex="1">
          <mxGeometry x="700" y="360" width="40" height="40" as="geometry" />
        </mxCell>
        <mxCell id="aoWRR9x3uaTq7NgfMGxi-30" value="&lt;span style=&quot;font-size: 8px&quot;&gt;Bi-LSTM&lt;/span&gt;" style="shape=ext;double=1;rounded=0;whiteSpace=wrap;html=1;fillColor=#d5e8d4;strokeColor=none;" parent="1" vertex="1">
          <mxGeometry x="760" y="360" width="40" height="40" as="geometry" />
        </mxCell>
        <mxCell id="aoWRR9x3uaTq7NgfMGxi-31" value="&lt;span style=&quot;font-size: 8px&quot;&gt;Bi-LSTM&lt;/span&gt;" style="shape=ext;double=1;rounded=0;whiteSpace=wrap;html=1;fillColor=#d5e8d4;strokeColor=none;" parent="1" vertex="1">
          <mxGeometry x="820" y="360" width="40" height="40" as="geometry" />
        </mxCell>
        <mxCell id="aoWRR9x3uaTq7NgfMGxi-32" value="&lt;span style=&quot;font-size: 8px&quot;&gt;Bi-LSTM&lt;/span&gt;" style="shape=ext;double=1;rounded=0;whiteSpace=wrap;html=1;fillColor=#d5e8d4;strokeColor=none;" parent="1" vertex="1">
          <mxGeometry x="940" y="360" width="40" height="40" as="geometry" />
        </mxCell>
        <mxCell id="aoWRR9x3uaTq7NgfMGxi-33" value="&lt;span style=&quot;font-size: 8px&quot;&gt;Bi-LSTM&lt;/span&gt;" style="shape=ext;double=1;rounded=0;whiteSpace=wrap;html=1;fillColor=#d5e8d4;strokeColor=none;" parent="1" vertex="1">
          <mxGeometry x="880" y="360" width="40" height="40" as="geometry" />
        </mxCell>
        <mxCell id="aoWRR9x3uaTq7NgfMGxi-34" value="&lt;span style=&quot;font-size: 8px&quot;&gt;Bi-LSTM&lt;/span&gt;" style="shape=ext;double=1;rounded=0;whiteSpace=wrap;html=1;fillColor=#d5e8d4;strokeColor=none;" parent="1" vertex="1">
          <mxGeometry x="1000" y="360" width="40" height="40" as="geometry" />
        </mxCell>
        <mxCell id="aoWRR9x3uaTq7NgfMGxi-35" value="&lt;span style=&quot;font-size: 8px&quot;&gt;Bi-LSTM&lt;/span&gt;" style="shape=ext;double=1;rounded=0;whiteSpace=wrap;html=1;fillColor=#d5e8d4;strokeColor=none;" parent="1" vertex="1">
          <mxGeometry x="1060" y="360" width="40" height="40" as="geometry" />
        </mxCell>
        <mxCell id="aoWRR9x3uaTq7NgfMGxi-37" value="按字Embedding" style="shape=ext;double=1;rounded=0;whiteSpace=wrap;html=1;fillColor=#dae8fc;strokeColor=#6c8ebf;perimeterSpacing=0;shadow=0;glass=0;sketch=0;" parent="1" vertex="1">
          <mxGeometry x="160" y="300" width="940" height="40" as="geometry" />
        </mxCell>
        <mxCell id="8VEoWzWvntJiqpH7d6k4-4" value="" style="endArrow=classic;html=1;exitX=0;exitY=0.75;exitDx=0;exitDy=0;entryX=1;entryY=0.75;entryDx=0;entryDy=0;" edge="1" parent="1" target="aoWRR9x3uaTq7NgfMGxi-21">
          <mxGeometry width="50" height="50" relative="1" as="geometry">
            <mxPoint x="220" y="390" as="sourcePoint" />
            <mxPoint x="680" y="370" as="targetPoint" />
          </mxGeometry>
        </mxCell>
        <mxCell id="8VEoWzWvntJiqpH7d6k4-5" value="&lt;font style=&quot;font-size: 8px&quot;&gt;Bi-LSTM&lt;/font&gt;" style="shape=ext;double=1;rounded=0;whiteSpace=wrap;html=1;fillColor=#d5e8d4;strokeColor=none;" vertex="1" parent="1">
          <mxGeometry x="220" y="360" width="40" height="40" as="geometry" />
        </mxCell>
        <mxCell id="8VEoWzWvntJiqpH7d6k4-7" value="&lt;font style=&quot;font-size: 8px&quot;&gt;Bi-LSTM&lt;/font&gt;" style="shape=ext;double=1;rounded=0;whiteSpace=wrap;html=1;fillColor=#d5e8d4;strokeColor=none;" vertex="1" parent="1">
          <mxGeometry x="280" y="360" width="40" height="40" as="geometry" />
        </mxCell>
        <mxCell id="8VEoWzWvntJiqpH7d6k4-9" value="&lt;font style=&quot;font-size: 8px&quot;&gt;Bi-LSTM&lt;/font&gt;" style="shape=ext;double=1;rounded=0;whiteSpace=wrap;html=1;fillColor=#d5e8d4;strokeColor=none;" vertex="1" parent="1">
          <mxGeometry x="340" y="360" width="40" height="40" as="geometry" />
        </mxCell>
        <mxCell id="8VEoWzWvntJiqpH7d6k4-10" value="&lt;font style=&quot;font-size: 8px&quot;&gt;Bi-LSTM&lt;/font&gt;" style="shape=ext;double=1;rounded=0;whiteSpace=wrap;html=1;fillColor=#d5e8d4;strokeColor=none;" vertex="1" parent="1">
          <mxGeometry x="400" y="360" width="40" height="40" as="geometry" />
        </mxCell>
        <mxCell id="8VEoWzWvntJiqpH7d6k4-11" style="edgeStyle=orthogonalEdgeStyle;rounded=0;orthogonalLoop=1;jettySize=auto;html=1;entryX=0;entryY=0.25;entryDx=0;entryDy=0;" edge="1" parent="1" target="8VEoWzWvntJiqpH7d6k4-7">
          <mxGeometry relative="1" as="geometry">
            <mxPoint x="260" y="370" as="sourcePoint" />
            <mxPoint x="230" y="380" as="targetPoint" />
          </mxGeometry>
        </mxCell>
        <mxCell id="8VEoWzWvntJiqpH7d6k4-14" value="" style="endArrow=classic;html=1;exitX=1;exitY=0.25;exitDx=0;exitDy=0;entryX=0;entryY=0.25;entryDx=0;entryDy=0;" edge="1" parent="1" source="8VEoWzWvntJiqpH7d6k4-7" target="8VEoWzWvntJiqpH7d6k4-9">
          <mxGeometry width="50" height="50" relative="1" as="geometry">
            <mxPoint x="630" y="440" as="sourcePoint" />
            <mxPoint x="680" y="390" as="targetPoint" />
          </mxGeometry>
        </mxCell>
        <mxCell id="8VEoWzWvntJiqpH7d6k4-15" value="" style="endArrow=classic;html=1;exitX=1;exitY=0.25;exitDx=0;exitDy=0;" edge="1" parent="1" source="8VEoWzWvntJiqpH7d6k4-9">
          <mxGeometry width="50" height="50" relative="1" as="geometry">
            <mxPoint x="630" y="440" as="sourcePoint" />
            <mxPoint x="400" y="370" as="targetPoint" />
          </mxGeometry>
        </mxCell>
        <mxCell id="8VEoWzWvntJiqpH7d6k4-16" value="" style="endArrow=classic;html=1;exitX=1;exitY=0.25;exitDx=0;exitDy=0;entryX=0;entryY=0.25;entryDx=0;entryDy=0;" edge="1" parent="1" source="aoWRR9x3uaTq7NgfMGxi-28" target="aoWRR9x3uaTq7NgfMGxi-29">
          <mxGeometry width="50" height="50" relative="1" as="geometry">
            <mxPoint x="630" y="440" as="sourcePoint" />
            <mxPoint x="680" y="390" as="targetPoint" />
          </mxGeometry>
        </mxCell>
        <mxCell id="8VEoWzWvntJiqpH7d6k4-17" value="" style="endArrow=classic;html=1;exitX=1;exitY=0.25;exitDx=0;exitDy=0;entryX=0;entryY=0.25;entryDx=0;entryDy=0;" edge="1" parent="1" source="aoWRR9x3uaTq7NgfMGxi-27" target="aoWRR9x3uaTq7NgfMGxi-28">
          <mxGeometry width="50" height="50" relative="1" as="geometry">
            <mxPoint x="630" y="440" as="sourcePoint" />
            <mxPoint x="680" y="390" as="targetPoint" />
          </mxGeometry>
        </mxCell>
        <mxCell id="8VEoWzWvntJiqpH7d6k4-18" value="" style="endArrow=classic;html=1;exitX=1;exitY=0.25;exitDx=0;exitDy=0;entryX=0;entryY=0.25;entryDx=0;entryDy=0;" edge="1" parent="1" source="aoWRR9x3uaTq7NgfMGxi-26" target="aoWRR9x3uaTq7NgfMGxi-27">
          <mxGeometry width="50" height="50" relative="1" as="geometry">
            <mxPoint x="630" y="440" as="sourcePoint" />
            <mxPoint x="680" y="390" as="targetPoint" />
          </mxGeometry>
        </mxCell>
        <mxCell id="8VEoWzWvntJiqpH7d6k4-19" value="" style="endArrow=classic;html=1;exitX=1;exitY=0.25;exitDx=0;exitDy=0;entryX=0;entryY=0.25;entryDx=0;entryDy=0;" edge="1" parent="1" source="aoWRR9x3uaTq7NgfMGxi-25" target="aoWRR9x3uaTq7NgfMGxi-26">
          <mxGeometry width="50" height="50" relative="1" as="geometry">
            <mxPoint x="630" y="440" as="sourcePoint" />
            <mxPoint x="680" y="390" as="targetPoint" />
          </mxGeometry>
        </mxCell>
        <mxCell id="8VEoWzWvntJiqpH7d6k4-20" value="" style="endArrow=classic;html=1;exitX=1;exitY=0.25;exitDx=0;exitDy=0;entryX=0;entryY=0.25;entryDx=0;entryDy=0;" edge="1" parent="1" source="8VEoWzWvntJiqpH7d6k4-10" target="aoWRR9x3uaTq7NgfMGxi-25">
          <mxGeometry width="50" height="50" relative="1" as="geometry">
            <mxPoint x="630" y="440" as="sourcePoint" />
            <mxPoint x="680" y="390" as="targetPoint" />
          </mxGeometry>
        </mxCell>
        <mxCell id="8VEoWzWvntJiqpH7d6k4-21" value="" style="endArrow=classic;html=1;exitX=1;exitY=0.25;exitDx=0;exitDy=0;entryX=0;entryY=0.25;entryDx=0;entryDy=0;" edge="1" parent="1" source="aoWRR9x3uaTq7NgfMGxi-34" target="aoWRR9x3uaTq7NgfMGxi-35">
          <mxGeometry width="50" height="50" relative="1" as="geometry">
            <mxPoint x="630" y="440" as="sourcePoint" />
            <mxPoint x="680" y="390" as="targetPoint" />
          </mxGeometry>
        </mxCell>
        <mxCell id="8VEoWzWvntJiqpH7d6k4-22" value="" style="endArrow=classic;html=1;exitX=1;exitY=0.25;exitDx=0;exitDy=0;entryX=0;entryY=0.25;entryDx=0;entryDy=0;" edge="1" parent="1" source="aoWRR9x3uaTq7NgfMGxi-32" target="aoWRR9x3uaTq7NgfMGxi-34">
          <mxGeometry width="50" height="50" relative="1" as="geometry">
            <mxPoint x="630" y="440" as="sourcePoint" />
            <mxPoint x="680" y="390" as="targetPoint" />
          </mxGeometry>
        </mxCell>
        <mxCell id="8VEoWzWvntJiqpH7d6k4-23" value="" style="endArrow=classic;html=1;exitX=1;exitY=0.25;exitDx=0;exitDy=0;entryX=0;entryY=0.25;entryDx=0;entryDy=0;" edge="1" parent="1" source="aoWRR9x3uaTq7NgfMGxi-33" target="aoWRR9x3uaTq7NgfMGxi-32">
          <mxGeometry width="50" height="50" relative="1" as="geometry">
            <mxPoint x="630" y="440" as="sourcePoint" />
            <mxPoint x="680" y="390" as="targetPoint" />
          </mxGeometry>
        </mxCell>
        <mxCell id="8VEoWzWvntJiqpH7d6k4-24" value="" style="endArrow=classic;html=1;exitX=1;exitY=0.25;exitDx=0;exitDy=0;entryX=0;entryY=0.25;entryDx=0;entryDy=0;" edge="1" parent="1" source="aoWRR9x3uaTq7NgfMGxi-31" target="aoWRR9x3uaTq7NgfMGxi-33">
          <mxGeometry width="50" height="50" relative="1" as="geometry">
            <mxPoint x="630" y="440" as="sourcePoint" />
            <mxPoint x="680" y="390" as="targetPoint" />
          </mxGeometry>
        </mxCell>
        <mxCell id="8VEoWzWvntJiqpH7d6k4-25" value="" style="endArrow=classic;html=1;exitX=1;exitY=0.25;exitDx=0;exitDy=0;entryX=0;entryY=0.25;entryDx=0;entryDy=0;" edge="1" parent="1" source="aoWRR9x3uaTq7NgfMGxi-30" target="aoWRR9x3uaTq7NgfMGxi-31">
          <mxGeometry width="50" height="50" relative="1" as="geometry">
            <mxPoint x="630" y="440" as="sourcePoint" />
            <mxPoint x="680" y="390" as="targetPoint" />
          </mxGeometry>
        </mxCell>
        <mxCell id="8VEoWzWvntJiqpH7d6k4-26" value="" style="endArrow=classic;html=1;exitX=1;exitY=0.25;exitDx=0;exitDy=0;entryX=0;entryY=0.25;entryDx=0;entryDy=0;" edge="1" parent="1" source="aoWRR9x3uaTq7NgfMGxi-29" target="aoWRR9x3uaTq7NgfMGxi-30">
          <mxGeometry width="50" height="50" relative="1" as="geometry">
            <mxPoint x="630" y="440" as="sourcePoint" />
            <mxPoint x="680" y="390" as="targetPoint" />
          </mxGeometry>
        </mxCell>
        <mxCell id="8VEoWzWvntJiqpH7d6k4-27" value="" style="endArrow=classic;html=1;exitX=0;exitY=0.75;exitDx=0;exitDy=0;" edge="1" parent="1" source="8VEoWzWvntJiqpH7d6k4-9">
          <mxGeometry width="50" height="50" relative="1" as="geometry">
            <mxPoint x="230" y="400" as="sourcePoint" />
            <mxPoint x="320" y="390" as="targetPoint" />
          </mxGeometry>
        </mxCell>
        <mxCell id="8VEoWzWvntJiqpH7d6k4-28" value="" style="endArrow=classic;html=1;exitX=0;exitY=0.75;exitDx=0;exitDy=0;entryX=1;entryY=0.75;entryDx=0;entryDy=0;" edge="1" parent="1" source="aoWRR9x3uaTq7NgfMGxi-34" target="aoWRR9x3uaTq7NgfMGxi-32">
          <mxGeometry width="50" height="50" relative="1" as="geometry">
            <mxPoint x="650" y="580" as="sourcePoint" />
            <mxPoint x="700" y="530" as="targetPoint" />
          </mxGeometry>
        </mxCell>
        <mxCell id="8VEoWzWvntJiqpH7d6k4-29" value="" style="endArrow=classic;html=1;exitX=0;exitY=0.75;exitDx=0;exitDy=0;entryX=1;entryY=0.75;entryDx=0;entryDy=0;" edge="1" parent="1" source="aoWRR9x3uaTq7NgfMGxi-32" target="aoWRR9x3uaTq7NgfMGxi-33">
          <mxGeometry width="50" height="50" relative="1" as="geometry">
            <mxPoint x="755" y="540" as="sourcePoint" />
            <mxPoint x="805" y="490" as="targetPoint" />
          </mxGeometry>
        </mxCell>
        <mxCell id="8VEoWzWvntJiqpH7d6k4-30" value="" style="endArrow=classic;html=1;exitX=0;exitY=0.75;exitDx=0;exitDy=0;entryX=1;entryY=0.75;entryDx=0;entryDy=0;" edge="1" parent="1" source="aoWRR9x3uaTq7NgfMGxi-33" target="aoWRR9x3uaTq7NgfMGxi-31">
          <mxGeometry width="50" height="50" relative="1" as="geometry">
            <mxPoint x="860" y="510" as="sourcePoint" />
            <mxPoint x="910" y="460" as="targetPoint" />
          </mxGeometry>
        </mxCell>
        <mxCell id="8VEoWzWvntJiqpH7d6k4-31" value="" style="endArrow=classic;html=1;entryX=1;entryY=0.75;entryDx=0;entryDy=0;exitX=0;exitY=0.75;exitDx=0;exitDy=0;" edge="1" parent="1" source="aoWRR9x3uaTq7NgfMGxi-31" target="aoWRR9x3uaTq7NgfMGxi-30">
          <mxGeometry width="50" height="50" relative="1" as="geometry">
            <mxPoint x="630" y="440" as="sourcePoint" />
            <mxPoint x="680" y="390" as="targetPoint" />
          </mxGeometry>
        </mxCell>
        <mxCell id="8VEoWzWvntJiqpH7d6k4-32" value="" style="endArrow=classic;html=1;exitX=0;exitY=0.75;exitDx=0;exitDy=0;" edge="1" parent="1" source="aoWRR9x3uaTq7NgfMGxi-29">
          <mxGeometry width="50" height="50" relative="1" as="geometry">
            <mxPoint x="630" y="440" as="sourcePoint" />
            <mxPoint x="680" y="390" as="targetPoint" />
          </mxGeometry>
        </mxCell>
        <mxCell id="8VEoWzWvntJiqpH7d6k4-33" value="" style="endArrow=classic;html=1;exitX=0;exitY=0.75;exitDx=0;exitDy=0;" edge="1" parent="1" source="aoWRR9x3uaTq7NgfMGxi-30">
          <mxGeometry width="50" height="50" relative="1" as="geometry">
            <mxPoint x="630" y="440" as="sourcePoint" />
            <mxPoint x="740" y="390" as="targetPoint" />
          </mxGeometry>
        </mxCell>
        <mxCell id="8VEoWzWvntJiqpH7d6k4-34" value="" style="endArrow=classic;html=1;exitX=0;exitY=0.75;exitDx=0;exitDy=0;entryX=1;entryY=0.75;entryDx=0;entryDy=0;" edge="1" parent="1" source="aoWRR9x3uaTq7NgfMGxi-28" target="aoWRR9x3uaTq7NgfMGxi-27">
          <mxGeometry width="50" height="50" relative="1" as="geometry">
            <mxPoint x="630" y="440" as="sourcePoint" />
            <mxPoint x="680" y="390" as="targetPoint" />
          </mxGeometry>
        </mxCell>
        <mxCell id="8VEoWzWvntJiqpH7d6k4-35" value="" style="endArrow=classic;html=1;exitX=0;exitY=0.75;exitDx=0;exitDy=0;entryX=1;entryY=0.75;entryDx=0;entryDy=0;" edge="1" parent="1" source="aoWRR9x3uaTq7NgfMGxi-27" target="aoWRR9x3uaTq7NgfMGxi-26">
          <mxGeometry width="50" height="50" relative="1" as="geometry">
            <mxPoint x="630" y="440" as="sourcePoint" />
            <mxPoint x="680" y="390" as="targetPoint" />
          </mxGeometry>
        </mxCell>
        <mxCell id="8VEoWzWvntJiqpH7d6k4-36" value="" style="endArrow=classic;html=1;exitX=0;exitY=0.75;exitDx=0;exitDy=0;entryX=1;entryY=0.75;entryDx=0;entryDy=0;" edge="1" parent="1" source="aoWRR9x3uaTq7NgfMGxi-26" target="aoWRR9x3uaTq7NgfMGxi-25">
          <mxGeometry width="50" height="50" relative="1" as="geometry">
            <mxPoint x="630" y="440" as="sourcePoint" />
            <mxPoint x="680" y="390" as="targetPoint" />
          </mxGeometry>
        </mxCell>
        <mxCell id="8VEoWzWvntJiqpH7d6k4-37" value="" style="endArrow=classic;html=1;exitX=0;exitY=0.75;exitDx=0;exitDy=0;entryX=1;entryY=0.75;entryDx=0;entryDy=0;" edge="1" parent="1" source="aoWRR9x3uaTq7NgfMGxi-25" target="8VEoWzWvntJiqpH7d6k4-10">
          <mxGeometry width="50" height="50" relative="1" as="geometry">
            <mxPoint x="630" y="440" as="sourcePoint" />
            <mxPoint x="680" y="390" as="targetPoint" />
          </mxGeometry>
        </mxCell>
        <mxCell id="8VEoWzWvntJiqpH7d6k4-38" value="" style="endArrow=classic;html=1;exitX=0;exitY=0.75;exitDx=0;exitDy=0;entryX=1;entryY=0.75;entryDx=0;entryDy=0;" edge="1" parent="1" source="8VEoWzWvntJiqpH7d6k4-7" target="8VEoWzWvntJiqpH7d6k4-5">
          <mxGeometry width="50" height="50" relative="1" as="geometry">
            <mxPoint x="630" y="440" as="sourcePoint" />
            <mxPoint x="680" y="390" as="targetPoint" />
          </mxGeometry>
        </mxCell>
        <mxCell id="8VEoWzWvntJiqpH7d6k4-39" value="" style="endArrow=classic;html=1;exitX=0;exitY=0.75;exitDx=0;exitDy=0;entryX=1;entryY=0.75;entryDx=0;entryDy=0;" edge="1" parent="1" source="8VEoWzWvntJiqpH7d6k4-10" target="8VEoWzWvntJiqpH7d6k4-9">
          <mxGeometry width="50" height="50" relative="1" as="geometry">
            <mxPoint x="630" y="440" as="sourcePoint" />
            <mxPoint x="680" y="390" as="targetPoint" />
          </mxGeometry>
        </mxCell>
        <mxCell id="8VEoWzWvntJiqpH7d6k4-40" value="" style="endArrow=classic;html=1;exitX=0;exitY=0.75;exitDx=0;exitDy=0;" edge="1" parent="1" source="aoWRR9x3uaTq7NgfMGxi-35">
          <mxGeometry width="50" height="50" relative="1" as="geometry">
            <mxPoint x="630" y="440" as="sourcePoint" />
            <mxPoint x="1040" y="390" as="targetPoint" />
          </mxGeometry>
        </mxCell>
        <mxCell id="8VEoWzWvntJiqpH7d6k4-41" style="edgeStyle=orthogonalEdgeStyle;rounded=0;orthogonalLoop=1;jettySize=auto;html=1;exitX=1;exitY=0.25;exitDx=0;exitDy=0;entryX=0;entryY=0.25;entryDx=0;entryDy=0;" edge="1" parent="1" source="8VEoWzWvntJiqpH7d6k4-42" target="8VEoWzWvntJiqpH7d6k4-55">
          <mxGeometry relative="1" as="geometry">
            <mxPoint x="220" y="440" as="targetPoint" />
          </mxGeometry>
        </mxCell>
        <mxCell id="8VEoWzWvntJiqpH7d6k4-42" value="&lt;font style=&quot;font-size: 8px&quot;&gt;Bi-LSTM&lt;/font&gt;" style="shape=ext;double=1;rounded=0;whiteSpace=wrap;html=1;fillColor=#d5e8d4;strokeColor=none;" vertex="1" parent="1">
          <mxGeometry x="160" y="420" width="40" height="40" as="geometry" />
        </mxCell>
        <mxCell id="8VEoWzWvntJiqpH7d6k4-43" value="&lt;span style=&quot;font-size: 8px&quot;&gt;Bi-LSTM&lt;/span&gt;" style="shape=ext;double=1;rounded=0;whiteSpace=wrap;html=1;fillColor=#d5e8d4;strokeColor=none;" vertex="1" parent="1">
          <mxGeometry x="460" y="420" width="40" height="40" as="geometry" />
        </mxCell>
        <mxCell id="8VEoWzWvntJiqpH7d6k4-44" value="&lt;span style=&quot;font-size: 8px&quot;&gt;Bi-LSTM&lt;/span&gt;" style="shape=ext;double=1;rounded=0;whiteSpace=wrap;html=1;fillColor=#d5e8d4;strokeColor=none;" vertex="1" parent="1">
          <mxGeometry x="520" y="420" width="40" height="40" as="geometry" />
        </mxCell>
        <mxCell id="8VEoWzWvntJiqpH7d6k4-45" value="&lt;span style=&quot;font-size: 8px&quot;&gt;Bi-LSTM&lt;/span&gt;" style="shape=ext;double=1;rounded=0;whiteSpace=wrap;html=1;fillColor=#d5e8d4;strokeColor=none;" vertex="1" parent="1">
          <mxGeometry x="580" y="420" width="40" height="40" as="geometry" />
        </mxCell>
        <mxCell id="8VEoWzWvntJiqpH7d6k4-46" value="&lt;span style=&quot;font-size: 8px&quot;&gt;Bi-LSTM&lt;/span&gt;" style="shape=ext;double=1;rounded=0;whiteSpace=wrap;html=1;fillColor=#d5e8d4;strokeColor=none;" vertex="1" parent="1">
          <mxGeometry x="640" y="420" width="40" height="40" as="geometry" />
        </mxCell>
        <mxCell id="8VEoWzWvntJiqpH7d6k4-47" value="&lt;span style=&quot;font-size: 8px&quot;&gt;Bi-LSTM&lt;/span&gt;" style="shape=ext;double=1;rounded=0;whiteSpace=wrap;html=1;fillColor=#d5e8d4;strokeColor=none;" vertex="1" parent="1">
          <mxGeometry x="700" y="420" width="40" height="40" as="geometry" />
        </mxCell>
        <mxCell id="8VEoWzWvntJiqpH7d6k4-48" value="&lt;span style=&quot;font-size: 8px&quot;&gt;Bi-LSTM&lt;/span&gt;" style="shape=ext;double=1;rounded=0;whiteSpace=wrap;html=1;fillColor=#d5e8d4;strokeColor=none;" vertex="1" parent="1">
          <mxGeometry x="760" y="420" width="40" height="40" as="geometry" />
        </mxCell>
        <mxCell id="8VEoWzWvntJiqpH7d6k4-49" value="&lt;span style=&quot;font-size: 8px&quot;&gt;Bi-LSTM&lt;/span&gt;" style="shape=ext;double=1;rounded=0;whiteSpace=wrap;html=1;fillColor=#d5e8d4;strokeColor=none;" vertex="1" parent="1">
          <mxGeometry x="820" y="420" width="40" height="40" as="geometry" />
        </mxCell>
        <mxCell id="8VEoWzWvntJiqpH7d6k4-50" value="&lt;span style=&quot;font-size: 8px&quot;&gt;Bi-LSTM&lt;/span&gt;" style="shape=ext;double=1;rounded=0;whiteSpace=wrap;html=1;fillColor=#d5e8d4;strokeColor=none;" vertex="1" parent="1">
          <mxGeometry x="940" y="420" width="40" height="40" as="geometry" />
        </mxCell>
        <mxCell id="8VEoWzWvntJiqpH7d6k4-51" value="&lt;span style=&quot;font-size: 8px&quot;&gt;Bi-LSTM&lt;/span&gt;" style="shape=ext;double=1;rounded=0;whiteSpace=wrap;html=1;fillColor=#d5e8d4;strokeColor=none;" vertex="1" parent="1">
          <mxGeometry x="880" y="420" width="40" height="40" as="geometry" />
        </mxCell>
        <mxCell id="8VEoWzWvntJiqpH7d6k4-52" value="&lt;span style=&quot;font-size: 8px&quot;&gt;Bi-LSTM&lt;/span&gt;" style="shape=ext;double=1;rounded=0;whiteSpace=wrap;html=1;fillColor=#d5e8d4;strokeColor=none;" vertex="1" parent="1">
          <mxGeometry x="1000" y="420" width="40" height="40" as="geometry" />
        </mxCell>
        <mxCell id="8VEoWzWvntJiqpH7d6k4-53" value="&lt;span style=&quot;font-size: 8px&quot;&gt;Bi-LSTM&lt;/span&gt;" style="shape=ext;double=1;rounded=0;whiteSpace=wrap;html=1;fillColor=#d5e8d4;strokeColor=none;" vertex="1" parent="1">
          <mxGeometry x="1060" y="420" width="40" height="40" as="geometry" />
        </mxCell>
        <mxCell id="8VEoWzWvntJiqpH7d6k4-54" value="" style="endArrow=classic;html=1;exitX=0;exitY=0.75;exitDx=0;exitDy=0;entryX=1;entryY=0.75;entryDx=0;entryDy=0;" edge="1" parent="1" target="8VEoWzWvntJiqpH7d6k4-42" source="8VEoWzWvntJiqpH7d6k4-55">
          <mxGeometry width="50" height="50" relative="1" as="geometry">
            <mxPoint x="220" y="460" as="sourcePoint" />
            <mxPoint x="680" y="440" as="targetPoint" />
          </mxGeometry>
        </mxCell>
        <mxCell id="8VEoWzWvntJiqpH7d6k4-55" value="&lt;font style=&quot;font-size: 8px&quot;&gt;Bi-LSTM&lt;/font&gt;" style="shape=ext;double=1;rounded=0;whiteSpace=wrap;html=1;fillColor=#d5e8d4;strokeColor=none;" vertex="1" parent="1">
          <mxGeometry x="220" y="420" width="40" height="40" as="geometry" />
        </mxCell>
        <mxCell id="8VEoWzWvntJiqpH7d6k4-56" value="&lt;font style=&quot;font-size: 8px&quot;&gt;Bi-LSTM&lt;/font&gt;" style="shape=ext;double=1;rounded=0;whiteSpace=wrap;html=1;fillColor=#d5e8d4;strokeColor=none;" vertex="1" parent="1">
          <mxGeometry x="280" y="420" width="40" height="40" as="geometry" />
        </mxCell>
        <mxCell id="8VEoWzWvntJiqpH7d6k4-57" value="&lt;font style=&quot;font-size: 8px&quot;&gt;Bi-LSTM&lt;/font&gt;" style="shape=ext;double=1;rounded=0;whiteSpace=wrap;html=1;fillColor=#d5e8d4;strokeColor=none;" vertex="1" parent="1">
          <mxGeometry x="340" y="420" width="40" height="40" as="geometry" />
        </mxCell>
        <mxCell id="8VEoWzWvntJiqpH7d6k4-58" value="&lt;font style=&quot;font-size: 8px&quot;&gt;Bi-LSTM&lt;/font&gt;" style="shape=ext;double=1;rounded=0;whiteSpace=wrap;html=1;fillColor=#d5e8d4;strokeColor=none;" vertex="1" parent="1">
          <mxGeometry x="400" y="420" width="40" height="40" as="geometry" />
        </mxCell>
        <mxCell id="8VEoWzWvntJiqpH7d6k4-59" style="edgeStyle=orthogonalEdgeStyle;rounded=0;orthogonalLoop=1;jettySize=auto;html=1;entryX=0;entryY=0.25;entryDx=0;entryDy=0;exitX=1;exitY=0.25;exitDx=0;exitDy=0;" edge="1" parent="1" target="8VEoWzWvntJiqpH7d6k4-56" source="8VEoWzWvntJiqpH7d6k4-55">
          <mxGeometry relative="1" as="geometry">
            <mxPoint x="260" y="440" as="sourcePoint" />
            <mxPoint x="230" y="450" as="targetPoint" />
          </mxGeometry>
        </mxCell>
        <mxCell id="8VEoWzWvntJiqpH7d6k4-60" value="" style="endArrow=classic;html=1;exitX=1;exitY=0.25;exitDx=0;exitDy=0;entryX=0;entryY=0.25;entryDx=0;entryDy=0;" edge="1" parent="1" source="8VEoWzWvntJiqpH7d6k4-56" target="8VEoWzWvntJiqpH7d6k4-57">
          <mxGeometry width="50" height="50" relative="1" as="geometry">
            <mxPoint x="630" y="510" as="sourcePoint" />
            <mxPoint x="680" y="460" as="targetPoint" />
          </mxGeometry>
        </mxCell>
        <mxCell id="8VEoWzWvntJiqpH7d6k4-61" value="" style="endArrow=classic;html=1;exitX=1;exitY=0.25;exitDx=0;exitDy=0;entryX=0;entryY=0.25;entryDx=0;entryDy=0;entryPerimeter=0;" edge="1" parent="1" source="8VEoWzWvntJiqpH7d6k4-57" target="8VEoWzWvntJiqpH7d6k4-58">
          <mxGeometry width="50" height="50" relative="1" as="geometry">
            <mxPoint x="630" y="510" as="sourcePoint" />
            <mxPoint x="400" y="440" as="targetPoint" />
          </mxGeometry>
        </mxCell>
        <mxCell id="8VEoWzWvntJiqpH7d6k4-62" value="" style="endArrow=classic;html=1;exitX=1;exitY=0.25;exitDx=0;exitDy=0;entryX=0;entryY=0.25;entryDx=0;entryDy=0;" edge="1" parent="1" source="8VEoWzWvntJiqpH7d6k4-46" target="8VEoWzWvntJiqpH7d6k4-47">
          <mxGeometry width="50" height="50" relative="1" as="geometry">
            <mxPoint x="630" y="510" as="sourcePoint" />
            <mxPoint x="680" y="460" as="targetPoint" />
          </mxGeometry>
        </mxCell>
        <mxCell id="8VEoWzWvntJiqpH7d6k4-63" value="" style="endArrow=classic;html=1;exitX=1;exitY=0.25;exitDx=0;exitDy=0;entryX=0;entryY=0.25;entryDx=0;entryDy=0;" edge="1" parent="1" source="8VEoWzWvntJiqpH7d6k4-45" target="8VEoWzWvntJiqpH7d6k4-46">
          <mxGeometry width="50" height="50" relative="1" as="geometry">
            <mxPoint x="630" y="510" as="sourcePoint" />
            <mxPoint x="680" y="460" as="targetPoint" />
          </mxGeometry>
        </mxCell>
        <mxCell id="8VEoWzWvntJiqpH7d6k4-64" value="" style="endArrow=classic;html=1;exitX=1;exitY=0.25;exitDx=0;exitDy=0;entryX=0;entryY=0.25;entryDx=0;entryDy=0;" edge="1" parent="1" source="8VEoWzWvntJiqpH7d6k4-44" target="8VEoWzWvntJiqpH7d6k4-45">
          <mxGeometry width="50" height="50" relative="1" as="geometry">
            <mxPoint x="630" y="510" as="sourcePoint" />
            <mxPoint x="680" y="460" as="targetPoint" />
          </mxGeometry>
        </mxCell>
        <mxCell id="8VEoWzWvntJiqpH7d6k4-65" value="" style="endArrow=classic;html=1;exitX=1;exitY=0.25;exitDx=0;exitDy=0;entryX=0;entryY=0.25;entryDx=0;entryDy=0;" edge="1" parent="1" source="8VEoWzWvntJiqpH7d6k4-43" target="8VEoWzWvntJiqpH7d6k4-44">
          <mxGeometry width="50" height="50" relative="1" as="geometry">
            <mxPoint x="630" y="510" as="sourcePoint" />
            <mxPoint x="680" y="460" as="targetPoint" />
          </mxGeometry>
        </mxCell>
        <mxCell id="8VEoWzWvntJiqpH7d6k4-66" value="" style="endArrow=classic;html=1;exitX=1;exitY=0.25;exitDx=0;exitDy=0;entryX=0;entryY=0.25;entryDx=0;entryDy=0;" edge="1" parent="1" source="8VEoWzWvntJiqpH7d6k4-58" target="8VEoWzWvntJiqpH7d6k4-43">
          <mxGeometry width="50" height="50" relative="1" as="geometry">
            <mxPoint x="630" y="510" as="sourcePoint" />
            <mxPoint x="680" y="460" as="targetPoint" />
          </mxGeometry>
        </mxCell>
        <mxCell id="8VEoWzWvntJiqpH7d6k4-67" value="" style="endArrow=classic;html=1;exitX=1;exitY=0.25;exitDx=0;exitDy=0;entryX=0;entryY=0.25;entryDx=0;entryDy=0;" edge="1" parent="1" source="8VEoWzWvntJiqpH7d6k4-52" target="8VEoWzWvntJiqpH7d6k4-53">
          <mxGeometry width="50" height="50" relative="1" as="geometry">
            <mxPoint x="630" y="510" as="sourcePoint" />
            <mxPoint x="680" y="460" as="targetPoint" />
          </mxGeometry>
        </mxCell>
        <mxCell id="8VEoWzWvntJiqpH7d6k4-68" value="" style="endArrow=classic;html=1;exitX=1;exitY=0.25;exitDx=0;exitDy=0;entryX=0;entryY=0.25;entryDx=0;entryDy=0;" edge="1" parent="1" source="8VEoWzWvntJiqpH7d6k4-50" target="8VEoWzWvntJiqpH7d6k4-52">
          <mxGeometry width="50" height="50" relative="1" as="geometry">
            <mxPoint x="630" y="510" as="sourcePoint" />
            <mxPoint x="680" y="460" as="targetPoint" />
          </mxGeometry>
        </mxCell>
        <mxCell id="8VEoWzWvntJiqpH7d6k4-69" value="" style="endArrow=classic;html=1;exitX=1;exitY=0.25;exitDx=0;exitDy=0;entryX=0;entryY=0.25;entryDx=0;entryDy=0;" edge="1" parent="1" source="8VEoWzWvntJiqpH7d6k4-51" target="8VEoWzWvntJiqpH7d6k4-50">
          <mxGeometry width="50" height="50" relative="1" as="geometry">
            <mxPoint x="630" y="510" as="sourcePoint" />
            <mxPoint x="680" y="460" as="targetPoint" />
          </mxGeometry>
        </mxCell>
        <mxCell id="8VEoWzWvntJiqpH7d6k4-70" value="" style="endArrow=classic;html=1;exitX=1;exitY=0.25;exitDx=0;exitDy=0;entryX=0;entryY=0.25;entryDx=0;entryDy=0;" edge="1" parent="1" source="8VEoWzWvntJiqpH7d6k4-49" target="8VEoWzWvntJiqpH7d6k4-51">
          <mxGeometry width="50" height="50" relative="1" as="geometry">
            <mxPoint x="630" y="510" as="sourcePoint" />
            <mxPoint x="680" y="460" as="targetPoint" />
          </mxGeometry>
        </mxCell>
        <mxCell id="8VEoWzWvntJiqpH7d6k4-71" value="" style="endArrow=classic;html=1;exitX=1;exitY=0.25;exitDx=0;exitDy=0;entryX=0;entryY=0.25;entryDx=0;entryDy=0;" edge="1" parent="1" source="8VEoWzWvntJiqpH7d6k4-48" target="8VEoWzWvntJiqpH7d6k4-49">
          <mxGeometry width="50" height="50" relative="1" as="geometry">
            <mxPoint x="630" y="510" as="sourcePoint" />
            <mxPoint x="680" y="460" as="targetPoint" />
          </mxGeometry>
        </mxCell>
        <mxCell id="8VEoWzWvntJiqpH7d6k4-72" value="" style="endArrow=classic;html=1;exitX=1;exitY=0.25;exitDx=0;exitDy=0;entryX=0;entryY=0.25;entryDx=0;entryDy=0;" edge="1" parent="1" source="8VEoWzWvntJiqpH7d6k4-47" target="8VEoWzWvntJiqpH7d6k4-48">
          <mxGeometry width="50" height="50" relative="1" as="geometry">
            <mxPoint x="630" y="510" as="sourcePoint" />
            <mxPoint x="680" y="460" as="targetPoint" />
          </mxGeometry>
        </mxCell>
        <mxCell id="8VEoWzWvntJiqpH7d6k4-73" value="" style="endArrow=classic;html=1;exitX=0;exitY=0.75;exitDx=0;exitDy=0;entryX=1;entryY=0.75;entryDx=0;entryDy=0;" edge="1" parent="1" source="8VEoWzWvntJiqpH7d6k4-57" target="8VEoWzWvntJiqpH7d6k4-56">
          <mxGeometry width="50" height="50" relative="1" as="geometry">
            <mxPoint x="230" y="470" as="sourcePoint" />
            <mxPoint x="320" y="460" as="targetPoint" />
          </mxGeometry>
        </mxCell>
        <mxCell id="8VEoWzWvntJiqpH7d6k4-74" value="" style="endArrow=classic;html=1;exitX=0;exitY=0.75;exitDx=0;exitDy=0;entryX=1;entryY=0.75;entryDx=0;entryDy=0;" edge="1" parent="1" source="8VEoWzWvntJiqpH7d6k4-52" target="8VEoWzWvntJiqpH7d6k4-50">
          <mxGeometry width="50" height="50" relative="1" as="geometry">
            <mxPoint x="650" y="650" as="sourcePoint" />
            <mxPoint x="700" y="600" as="targetPoint" />
          </mxGeometry>
        </mxCell>
        <mxCell id="8VEoWzWvntJiqpH7d6k4-75" value="" style="endArrow=classic;html=1;exitX=0;exitY=0.75;exitDx=0;exitDy=0;entryX=1;entryY=0.75;entryDx=0;entryDy=0;" edge="1" parent="1" source="8VEoWzWvntJiqpH7d6k4-50" target="8VEoWzWvntJiqpH7d6k4-51">
          <mxGeometry width="50" height="50" relative="1" as="geometry">
            <mxPoint x="755" y="610" as="sourcePoint" />
            <mxPoint x="805" y="560" as="targetPoint" />
          </mxGeometry>
        </mxCell>
        <mxCell id="8VEoWzWvntJiqpH7d6k4-76" value="" style="endArrow=classic;html=1;exitX=0;exitY=0.75;exitDx=0;exitDy=0;entryX=1;entryY=0.75;entryDx=0;entryDy=0;" edge="1" parent="1" source="8VEoWzWvntJiqpH7d6k4-51" target="8VEoWzWvntJiqpH7d6k4-49">
          <mxGeometry width="50" height="50" relative="1" as="geometry">
            <mxPoint x="860" y="580" as="sourcePoint" />
            <mxPoint x="910" y="530" as="targetPoint" />
          </mxGeometry>
        </mxCell>
        <mxCell id="8VEoWzWvntJiqpH7d6k4-77" value="" style="endArrow=classic;html=1;entryX=1;entryY=0.75;entryDx=0;entryDy=0;exitX=0;exitY=0.75;exitDx=0;exitDy=0;" edge="1" parent="1" source="8VEoWzWvntJiqpH7d6k4-49" target="8VEoWzWvntJiqpH7d6k4-48">
          <mxGeometry width="50" height="50" relative="1" as="geometry">
            <mxPoint x="630" y="510" as="sourcePoint" />
            <mxPoint x="680" y="460" as="targetPoint" />
          </mxGeometry>
        </mxCell>
        <mxCell id="8VEoWzWvntJiqpH7d6k4-78" value="" style="endArrow=classic;html=1;exitX=0;exitY=0.75;exitDx=0;exitDy=0;" edge="1" parent="1" source="8VEoWzWvntJiqpH7d6k4-47">
          <mxGeometry width="50" height="50" relative="1" as="geometry">
            <mxPoint x="630" y="510" as="sourcePoint" />
            <mxPoint x="680" y="450" as="targetPoint" />
          </mxGeometry>
        </mxCell>
        <mxCell id="8VEoWzWvntJiqpH7d6k4-79" value="" style="endArrow=classic;html=1;exitX=0;exitY=0.75;exitDx=0;exitDy=0;" edge="1" parent="1" source="8VEoWzWvntJiqpH7d6k4-48">
          <mxGeometry width="50" height="50" relative="1" as="geometry">
            <mxPoint x="630" y="510" as="sourcePoint" />
            <mxPoint x="740" y="450" as="targetPoint" />
          </mxGeometry>
        </mxCell>
        <mxCell id="8VEoWzWvntJiqpH7d6k4-80" value="" style="endArrow=classic;html=1;exitX=0;exitY=0.75;exitDx=0;exitDy=0;entryX=1;entryY=0.75;entryDx=0;entryDy=0;" edge="1" parent="1" source="8VEoWzWvntJiqpH7d6k4-46" target="8VEoWzWvntJiqpH7d6k4-45">
          <mxGeometry width="50" height="50" relative="1" as="geometry">
            <mxPoint x="630" y="510" as="sourcePoint" />
            <mxPoint x="680" y="460" as="targetPoint" />
          </mxGeometry>
        </mxCell>
        <mxCell id="8VEoWzWvntJiqpH7d6k4-81" value="" style="endArrow=classic;html=1;exitX=0;exitY=0.75;exitDx=0;exitDy=0;entryX=1;entryY=0.75;entryDx=0;entryDy=0;" edge="1" parent="1" source="8VEoWzWvntJiqpH7d6k4-45" target="8VEoWzWvntJiqpH7d6k4-44">
          <mxGeometry width="50" height="50" relative="1" as="geometry">
            <mxPoint x="630" y="510" as="sourcePoint" />
            <mxPoint x="680" y="460" as="targetPoint" />
          </mxGeometry>
        </mxCell>
        <mxCell id="8VEoWzWvntJiqpH7d6k4-82" value="" style="endArrow=classic;html=1;exitX=0;exitY=0.75;exitDx=0;exitDy=0;entryX=1;entryY=0.75;entryDx=0;entryDy=0;" edge="1" parent="1" source="8VEoWzWvntJiqpH7d6k4-44" target="8VEoWzWvntJiqpH7d6k4-43">
          <mxGeometry width="50" height="50" relative="1" as="geometry">
            <mxPoint x="630" y="510" as="sourcePoint" />
            <mxPoint x="680" y="460" as="targetPoint" />
          </mxGeometry>
        </mxCell>
        <mxCell id="8VEoWzWvntJiqpH7d6k4-83" value="" style="endArrow=classic;html=1;exitX=0;exitY=0.75;exitDx=0;exitDy=0;entryX=1;entryY=0.75;entryDx=0;entryDy=0;" edge="1" parent="1" source="8VEoWzWvntJiqpH7d6k4-43" target="8VEoWzWvntJiqpH7d6k4-58">
          <mxGeometry width="50" height="50" relative="1" as="geometry">
            <mxPoint x="630" y="510" as="sourcePoint" />
            <mxPoint x="680" y="460" as="targetPoint" />
          </mxGeometry>
        </mxCell>
        <mxCell id="8VEoWzWvntJiqpH7d6k4-84" value="" style="endArrow=classic;html=1;exitX=0;exitY=0.75;exitDx=0;exitDy=0;entryX=1;entryY=0.75;entryDx=0;entryDy=0;" edge="1" parent="1" source="8VEoWzWvntJiqpH7d6k4-56" target="8VEoWzWvntJiqpH7d6k4-55">
          <mxGeometry width="50" height="50" relative="1" as="geometry">
            <mxPoint x="630" y="510" as="sourcePoint" />
            <mxPoint x="680" y="460" as="targetPoint" />
          </mxGeometry>
        </mxCell>
        <mxCell id="8VEoWzWvntJiqpH7d6k4-85" value="" style="endArrow=classic;html=1;exitX=0;exitY=0.75;exitDx=0;exitDy=0;entryX=1;entryY=0.75;entryDx=0;entryDy=0;" edge="1" parent="1" source="8VEoWzWvntJiqpH7d6k4-58" target="8VEoWzWvntJiqpH7d6k4-57">
          <mxGeometry width="50" height="50" relative="1" as="geometry">
            <mxPoint x="630" y="510" as="sourcePoint" />
            <mxPoint x="680" y="460" as="targetPoint" />
          </mxGeometry>
        </mxCell>
        <mxCell id="8VEoWzWvntJiqpH7d6k4-86" value="" style="endArrow=classic;html=1;exitX=0;exitY=0.75;exitDx=0;exitDy=0;" edge="1" parent="1" source="8VEoWzWvntJiqpH7d6k4-53">
          <mxGeometry width="50" height="50" relative="1" as="geometry">
            <mxPoint x="630" y="510" as="sourcePoint" />
            <mxPoint x="1040" y="450" as="targetPoint" />
          </mxGeometry>
        </mxCell>
        <mxCell id="8VEoWzWvntJiqpH7d6k4-107" value="Max Pool + CNN + Dense" style="shape=ext;double=1;rounded=0;whiteSpace=wrap;html=1;fillColor=#dae8fc;strokeColor=#6c8ebf;perimeterSpacing=0;shadow=0;glass=0;sketch=0;" vertex="1" parent="1">
          <mxGeometry x="160" y="540" width="940" height="40" as="geometry" />
        </mxCell>
        <mxCell id="8VEoWzWvntJiqpH7d6k4-108" value="" style="shape=ext;double=1;rounded=0;whiteSpace=wrap;html=1;fillColor=#f8cecc;strokeColor=none;" vertex="1" parent="1">
          <mxGeometry x="160" y="480" width="40" height="40" as="geometry" />
        </mxCell>
        <mxCell id="8VEoWzWvntJiqpH7d6k4-109" value="" style="shape=ext;double=1;rounded=0;whiteSpace=wrap;html=1;fillColor=#f8cecc;strokeColor=none;" vertex="1" parent="1">
          <mxGeometry x="220" y="480" width="40" height="40" as="geometry" />
        </mxCell>
        <mxCell id="8VEoWzWvntJiqpH7d6k4-110" value="" style="shape=ext;double=1;rounded=0;whiteSpace=wrap;html=1;fillColor=#f8cecc;strokeColor=none;" vertex="1" parent="1">
          <mxGeometry x="280" y="480" width="40" height="40" as="geometry" />
        </mxCell>
        <mxCell id="8VEoWzWvntJiqpH7d6k4-111" value="" style="shape=ext;double=1;rounded=0;whiteSpace=wrap;html=1;fillColor=#f8cecc;strokeColor=none;" vertex="1" parent="1">
          <mxGeometry x="340" y="480" width="40" height="40" as="geometry" />
        </mxCell>
        <mxCell id="8VEoWzWvntJiqpH7d6k4-112" value="" style="shape=ext;double=1;rounded=0;whiteSpace=wrap;html=1;fillColor=#f8cecc;strokeColor=none;" vertex="1" parent="1">
          <mxGeometry x="460" y="480" width="40" height="40" as="geometry" />
        </mxCell>
        <mxCell id="8VEoWzWvntJiqpH7d6k4-113" value="" style="shape=ext;double=1;rounded=0;whiteSpace=wrap;html=1;fillColor=#f8cecc;strokeColor=none;" vertex="1" parent="1">
          <mxGeometry x="520" y="480" width="40" height="40" as="geometry" />
        </mxCell>
        <mxCell id="8VEoWzWvntJiqpH7d6k4-114" value="" style="shape=ext;double=1;rounded=0;whiteSpace=wrap;html=1;fillColor=#f8cecc;strokeColor=none;" vertex="1" parent="1">
          <mxGeometry x="580" y="480" width="40" height="40" as="geometry" />
        </mxCell>
        <mxCell id="8VEoWzWvntJiqpH7d6k4-115" value="" style="shape=ext;double=1;rounded=0;whiteSpace=wrap;html=1;fillColor=#f8cecc;strokeColor=none;" vertex="1" parent="1">
          <mxGeometry x="640" y="480" width="40" height="40" as="geometry" />
        </mxCell>
        <mxCell id="8VEoWzWvntJiqpH7d6k4-116" value="" style="shape=ext;double=1;rounded=0;whiteSpace=wrap;html=1;fillColor=#f8cecc;strokeColor=none;" vertex="1" parent="1">
          <mxGeometry x="700" y="480" width="40" height="40" as="geometry" />
        </mxCell>
        <mxCell id="8VEoWzWvntJiqpH7d6k4-117" value="" style="shape=ext;double=1;rounded=0;whiteSpace=wrap;html=1;fillColor=#f8cecc;strokeColor=none;" vertex="1" parent="1">
          <mxGeometry x="760" y="480" width="40" height="40" as="geometry" />
        </mxCell>
        <mxCell id="8VEoWzWvntJiqpH7d6k4-118" value="" style="shape=ext;double=1;rounded=0;whiteSpace=wrap;html=1;fillColor=#f8cecc;strokeColor=none;" vertex="1" parent="1">
          <mxGeometry x="820" y="480" width="40" height="40" as="geometry" />
        </mxCell>
        <mxCell id="8VEoWzWvntJiqpH7d6k4-119" value="" style="shape=ext;double=1;rounded=0;whiteSpace=wrap;html=1;fillColor=#f8cecc;strokeColor=none;" vertex="1" parent="1">
          <mxGeometry x="940" y="480" width="40" height="40" as="geometry" />
        </mxCell>
        <mxCell id="8VEoWzWvntJiqpH7d6k4-120" value="" style="shape=ext;double=1;rounded=0;whiteSpace=wrap;html=1;fillColor=#f8cecc;strokeColor=none;" vertex="1" parent="1">
          <mxGeometry x="880" y="480" width="40" height="40" as="geometry" />
        </mxCell>
        <mxCell id="8VEoWzWvntJiqpH7d6k4-121" value="" style="shape=ext;double=1;rounded=0;whiteSpace=wrap;html=1;fillColor=#f8cecc;strokeColor=none;" vertex="1" parent="1">
          <mxGeometry x="1000" y="480" width="40" height="40" as="geometry" />
        </mxCell>
        <mxCell id="8VEoWzWvntJiqpH7d6k4-122" value="" style="shape=ext;double=1;rounded=0;whiteSpace=wrap;html=1;fillColor=#f8cecc;strokeColor=none;" vertex="1" parent="1">
          <mxGeometry x="1060" y="480" width="40" height="40" as="geometry" />
        </mxCell>
        <mxCell id="8VEoWzWvntJiqpH7d6k4-123" value="" style="shape=ext;double=1;rounded=0;whiteSpace=wrap;html=1;fillColor=#f8cecc;strokeColor=none;" vertex="1" parent="1">
          <mxGeometry x="400" y="480" width="40" height="40" as="geometry" />
        </mxCell>
        <mxCell id="8VEoWzWvntJiqpH7d6k4-124" value="" style="shape=ext;double=1;rounded=0;whiteSpace=wrap;html=1;fillColor=#f8cecc;strokeColor=none;" vertex="1" parent="1">
          <mxGeometry x="160" y="840" width="40" height="40" as="geometry" />
        </mxCell>
        <mxCell id="8VEoWzWvntJiqpH7d6k4-125" value="" style="shape=ext;double=1;rounded=0;whiteSpace=wrap;html=1;fillColor=#f8cecc;strokeColor=none;" vertex="1" parent="1">
          <mxGeometry x="220" y="840" width="40" height="40" as="geometry" />
        </mxCell>
        <mxCell id="8VEoWzWvntJiqpH7d6k4-126" value="" style="shape=ext;double=1;rounded=0;whiteSpace=wrap;html=1;fillColor=#f8cecc;strokeColor=none;" vertex="1" parent="1">
          <mxGeometry x="280" y="840" width="40" height="40" as="geometry" />
        </mxCell>
        <mxCell id="8VEoWzWvntJiqpH7d6k4-127" value="" style="shape=ext;double=1;rounded=0;whiteSpace=wrap;html=1;fillColor=#f8cecc;strokeColor=none;" vertex="1" parent="1">
          <mxGeometry x="340" y="840" width="40" height="40" as="geometry" />
        </mxCell>
        <mxCell id="8VEoWzWvntJiqpH7d6k4-128" value="" style="shape=ext;double=1;rounded=0;whiteSpace=wrap;html=1;fillColor=#f8cecc;strokeColor=none;" vertex="1" parent="1">
          <mxGeometry x="460" y="840" width="40" height="40" as="geometry" />
        </mxCell>
        <mxCell id="8VEoWzWvntJiqpH7d6k4-129" value="" style="shape=ext;double=1;rounded=0;whiteSpace=wrap;html=1;fillColor=#f8cecc;strokeColor=none;" vertex="1" parent="1">
          <mxGeometry x="520" y="840" width="40" height="40" as="geometry" />
        </mxCell>
        <mxCell id="8VEoWzWvntJiqpH7d6k4-130" value="" style="shape=ext;double=1;rounded=0;whiteSpace=wrap;html=1;fillColor=#f8cecc;strokeColor=none;" vertex="1" parent="1">
          <mxGeometry x="580" y="840" width="40" height="40" as="geometry" />
        </mxCell>
        <mxCell id="8VEoWzWvntJiqpH7d6k4-131" value="" style="shape=ext;double=1;rounded=0;whiteSpace=wrap;html=1;fillColor=#f8cecc;strokeColor=none;" vertex="1" parent="1">
          <mxGeometry x="640" y="840" width="40" height="40" as="geometry" />
        </mxCell>
        <mxCell id="8VEoWzWvntJiqpH7d6k4-132" value="" style="shape=ext;double=1;rounded=0;whiteSpace=wrap;html=1;fillColor=#f8cecc;strokeColor=none;" vertex="1" parent="1">
          <mxGeometry x="700" y="840" width="40" height="40" as="geometry" />
        </mxCell>
        <mxCell id="8VEoWzWvntJiqpH7d6k4-133" value="" style="shape=ext;double=1;rounded=0;whiteSpace=wrap;html=1;fillColor=#f8cecc;strokeColor=none;" vertex="1" parent="1">
          <mxGeometry x="760" y="840" width="40" height="40" as="geometry" />
        </mxCell>
        <mxCell id="8VEoWzWvntJiqpH7d6k4-134" value="" style="shape=ext;double=1;rounded=0;whiteSpace=wrap;html=1;fillColor=#f8cecc;strokeColor=none;" vertex="1" parent="1">
          <mxGeometry x="820" y="840" width="40" height="40" as="geometry" />
        </mxCell>
        <mxCell id="8VEoWzWvntJiqpH7d6k4-135" value="" style="shape=ext;double=1;rounded=0;whiteSpace=wrap;html=1;fillColor=#f8cecc;strokeColor=none;" vertex="1" parent="1">
          <mxGeometry x="940" y="840" width="40" height="40" as="geometry" />
        </mxCell>
        <mxCell id="8VEoWzWvntJiqpH7d6k4-136" value="" style="shape=ext;double=1;rounded=0;whiteSpace=wrap;html=1;fillColor=#f8cecc;strokeColor=none;" vertex="1" parent="1">
          <mxGeometry x="880" y="840" width="40" height="40" as="geometry" />
        </mxCell>
        <mxCell id="8VEoWzWvntJiqpH7d6k4-137" value="" style="shape=ext;double=1;rounded=0;whiteSpace=wrap;html=1;fillColor=#f8cecc;strokeColor=none;" vertex="1" parent="1">
          <mxGeometry x="1000" y="840" width="40" height="40" as="geometry" />
        </mxCell>
        <mxCell id="8VEoWzWvntJiqpH7d6k4-138" value="" style="shape=ext;double=1;rounded=0;whiteSpace=wrap;html=1;fillColor=#f8cecc;strokeColor=none;" vertex="1" parent="1">
          <mxGeometry x="1060" y="840" width="40" height="40" as="geometry" />
        </mxCell>
        <mxCell id="8VEoWzWvntJiqpH7d6k4-139" value="" style="shape=ext;double=1;rounded=0;whiteSpace=wrap;html=1;fillColor=#f8cecc;strokeColor=none;" vertex="1" parent="1">
          <mxGeometry x="400" y="840" width="40" height="40" as="geometry" />
        </mxCell>
        <mxCell id="8VEoWzWvntJiqpH7d6k4-140" value="" style="shape=ext;double=1;rounded=0;whiteSpace=wrap;html=1;fillColor=#f8cecc;strokeColor=none;" vertex="1" parent="1">
          <mxGeometry x="160" y="480" width="40" height="40" as="geometry" />
        </mxCell>
        <mxCell id="8VEoWzWvntJiqpH7d6k4-141" value="" style="shape=ext;double=1;rounded=0;whiteSpace=wrap;html=1;fillColor=#f8cecc;strokeColor=none;" vertex="1" parent="1">
          <mxGeometry x="220" y="480" width="40" height="40" as="geometry" />
        </mxCell>
        <mxCell id="8VEoWzWvntJiqpH7d6k4-142" value="" style="shape=ext;double=1;rounded=0;whiteSpace=wrap;html=1;fillColor=#f8cecc;strokeColor=none;" vertex="1" parent="1">
          <mxGeometry x="280" y="480" width="40" height="40" as="geometry" />
        </mxCell>
        <mxCell id="8VEoWzWvntJiqpH7d6k4-143" value="" style="shape=ext;double=1;rounded=0;whiteSpace=wrap;html=1;fillColor=#f8cecc;strokeColor=none;" vertex="1" parent="1">
          <mxGeometry x="340" y="480" width="40" height="40" as="geometry" />
        </mxCell>
        <mxCell id="8VEoWzWvntJiqpH7d6k4-144" value="" style="shape=ext;double=1;rounded=0;whiteSpace=wrap;html=1;fillColor=#f8cecc;strokeColor=none;" vertex="1" parent="1">
          <mxGeometry x="460" y="620" width="40" height="40" as="geometry" />
        </mxCell>
        <mxCell id="8VEoWzWvntJiqpH7d6k4-145" value="" style="shape=ext;double=1;rounded=0;whiteSpace=wrap;html=1;fillColor=#f8cecc;strokeColor=none;" vertex="1" parent="1">
          <mxGeometry x="520" y="620" width="40" height="40" as="geometry" />
        </mxCell>
        <mxCell id="8VEoWzWvntJiqpH7d6k4-146" value="" style="shape=ext;double=1;rounded=0;whiteSpace=wrap;html=1;fillColor=#f8cecc;strokeColor=none;" vertex="1" parent="1">
          <mxGeometry x="580" y="620" width="40" height="40" as="geometry" />
        </mxCell>
        <mxCell id="8VEoWzWvntJiqpH7d6k4-147" value="" style="shape=ext;double=1;rounded=0;whiteSpace=wrap;html=1;fillColor=#f8cecc;strokeColor=none;" vertex="1" parent="1">
          <mxGeometry x="640" y="620" width="40" height="40" as="geometry" />
        </mxCell>
        <mxCell id="8VEoWzWvntJiqpH7d6k4-148" value="" style="shape=ext;double=1;rounded=0;whiteSpace=wrap;html=1;fillColor=#f8cecc;strokeColor=none;" vertex="1" parent="1">
          <mxGeometry x="700" y="620" width="40" height="40" as="geometry" />
        </mxCell>
        <mxCell id="8VEoWzWvntJiqpH7d6k4-149" value="" style="shape=ext;double=1;rounded=0;whiteSpace=wrap;html=1;fillColor=#f8cecc;strokeColor=none;" vertex="1" parent="1">
          <mxGeometry x="760" y="620" width="40" height="40" as="geometry" />
        </mxCell>
        <mxCell id="8VEoWzWvntJiqpH7d6k4-150" value="0" style="shape=ext;double=1;rounded=0;whiteSpace=wrap;html=1;fillColor=#ffe6cc;strokeColor=none;" vertex="1" parent="1">
          <mxGeometry x="820" y="620" width="40" height="40" as="geometry" />
        </mxCell>
        <mxCell id="8VEoWzWvntJiqpH7d6k4-151" value="0" style="shape=ext;double=1;rounded=0;whiteSpace=wrap;html=1;fillColor=#ffe6cc;strokeColor=none;" vertex="1" parent="1">
          <mxGeometry x="940" y="620" width="40" height="40" as="geometry" />
        </mxCell>
        <mxCell id="8VEoWzWvntJiqpH7d6k4-152" value="0" style="shape=ext;double=1;rounded=0;whiteSpace=wrap;html=1;fillColor=#ffe6cc;strokeColor=none;" vertex="1" parent="1">
          <mxGeometry x="880" y="620" width="40" height="40" as="geometry" />
        </mxCell>
        <mxCell id="8VEoWzWvntJiqpH7d6k4-153" value="0" style="shape=ext;double=1;rounded=0;whiteSpace=wrap;html=1;fillColor=#ffe6cc;strokeColor=none;" vertex="1" parent="1">
          <mxGeometry x="1000" y="620" width="40" height="40" as="geometry" />
        </mxCell>
        <mxCell id="8VEoWzWvntJiqpH7d6k4-154" value="0" style="shape=ext;double=1;rounded=0;whiteSpace=wrap;html=1;fillColor=#ffe6cc;strokeColor=none;" vertex="1" parent="1">
          <mxGeometry x="1060" y="620" width="40" height="40" as="geometry" />
        </mxCell>
        <mxCell id="8VEoWzWvntJiqpH7d6k4-155" value="" style="shape=ext;double=1;rounded=0;whiteSpace=wrap;html=1;fillColor=#f8cecc;strokeColor=none;" vertex="1" parent="1">
          <mxGeometry x="400" y="620" width="40" height="40" as="geometry" />
        </mxCell>
        <mxCell id="8VEoWzWvntJiqpH7d6k4-156" value="" style="shape=ext;double=1;rounded=0;whiteSpace=wrap;html=1;fillColor=#f8cecc;strokeColor=none;" vertex="1" parent="1">
          <mxGeometry x="160" y="620" width="40" height="40" as="geometry" />
        </mxCell>
        <mxCell id="8VEoWzWvntJiqpH7d6k4-157" value="" style="shape=ext;double=1;rounded=0;whiteSpace=wrap;html=1;fillColor=#f8cecc;strokeColor=none;" vertex="1" parent="1">
          <mxGeometry x="220" y="620" width="40" height="40" as="geometry" />
        </mxCell>
        <mxCell id="8VEoWzWvntJiqpH7d6k4-158" value="" style="shape=ext;double=1;rounded=0;whiteSpace=wrap;html=1;fillColor=#f8cecc;strokeColor=none;" vertex="1" parent="1">
          <mxGeometry x="280" y="620" width="40" height="40" as="geometry" />
        </mxCell>
        <mxCell id="8VEoWzWvntJiqpH7d6k4-159" value="" style="shape=ext;double=1;rounded=0;whiteSpace=wrap;html=1;fillColor=#f8cecc;strokeColor=none;" vertex="1" parent="1">
          <mxGeometry x="340" y="620" width="40" height="40" as="geometry" />
        </mxCell>
        <mxCell id="8VEoWzWvntJiqpH7d6k4-160" value="0" style="shape=ext;double=1;rounded=0;whiteSpace=wrap;html=1;fillColor=#ffe6cc;strokeColor=none;" vertex="1" parent="1">
          <mxGeometry x="160" y="620" width="40" height="40" as="geometry" />
        </mxCell>
        <mxCell id="8VEoWzWvntJiqpH7d6k4-161" value="&lt;b&gt;&lt;font style=&quot;font-size: 15px&quot; color=&quot;#ff0000&quot;&gt;1&lt;/font&gt;&lt;/b&gt;" style="shape=ext;double=1;rounded=0;whiteSpace=wrap;html=1;fillColor=#ffe6cc;strokeColor=none;" vertex="1" parent="1">
          <mxGeometry x="220" y="620" width="40" height="40" as="geometry" />
        </mxCell>
        <mxCell id="8VEoWzWvntJiqpH7d6k4-162" value="0" style="shape=ext;double=1;rounded=0;whiteSpace=wrap;html=1;fillColor=#ffe6cc;strokeColor=none;" vertex="1" parent="1">
          <mxGeometry x="280" y="620" width="40" height="40" as="geometry" />
        </mxCell>
        <mxCell id="8VEoWzWvntJiqpH7d6k4-163" value="0" style="shape=ext;double=1;rounded=0;whiteSpace=wrap;html=1;fillColor=#ffe6cc;strokeColor=none;" vertex="1" parent="1">
          <mxGeometry x="340" y="620" width="40" height="40" as="geometry" />
        </mxCell>
        <mxCell id="8VEoWzWvntJiqpH7d6k4-164" value="0" style="shape=ext;double=1;rounded=0;whiteSpace=wrap;html=1;fillColor=#ffe6cc;strokeColor=none;" vertex="1" parent="1">
          <mxGeometry x="400" y="620" width="40" height="40" as="geometry" />
        </mxCell>
        <mxCell id="8VEoWzWvntJiqpH7d6k4-165" value="0" style="shape=ext;double=1;rounded=0;whiteSpace=wrap;html=1;fillColor=#ffe6cc;strokeColor=none;" vertex="1" parent="1">
          <mxGeometry x="460" y="620" width="40" height="40" as="geometry" />
        </mxCell>
        <mxCell id="8VEoWzWvntJiqpH7d6k4-166" value="0" style="shape=ext;double=1;rounded=0;whiteSpace=wrap;html=1;fillColor=#ffe6cc;strokeColor=none;" vertex="1" parent="1">
          <mxGeometry x="520" y="620" width="40" height="40" as="geometry" />
        </mxCell>
        <mxCell id="8VEoWzWvntJiqpH7d6k4-167" value="0" style="shape=ext;double=1;rounded=0;whiteSpace=wrap;html=1;fillColor=#ffe6cc;strokeColor=none;" vertex="1" parent="1">
          <mxGeometry x="580" y="620" width="40" height="40" as="geometry" />
        </mxCell>
        <mxCell id="8VEoWzWvntJiqpH7d6k4-168" value="0" style="shape=ext;double=1;rounded=0;whiteSpace=wrap;html=1;fillColor=#ffe6cc;strokeColor=none;" vertex="1" parent="1">
          <mxGeometry x="640" y="620" width="40" height="40" as="geometry" />
        </mxCell>
        <mxCell id="8VEoWzWvntJiqpH7d6k4-169" value="0" style="shape=ext;double=1;rounded=0;whiteSpace=wrap;html=1;fillColor=#ffe6cc;strokeColor=none;" vertex="1" parent="1">
          <mxGeometry x="700" y="620" width="40" height="40" as="geometry" />
        </mxCell>
        <mxCell id="8VEoWzWvntJiqpH7d6k4-170" value="0" style="shape=ext;double=1;rounded=0;whiteSpace=wrap;html=1;fillColor=#ffe6cc;strokeColor=none;" vertex="1" parent="1">
          <mxGeometry x="760" y="620" width="40" height="40" as="geometry" />
        </mxCell>
        <mxCell id="8VEoWzWvntJiqpH7d6k4-171" value="0" style="shape=ext;double=1;rounded=0;whiteSpace=wrap;html=1;fillColor=#ffe6cc;strokeColor=none;" vertex="1" parent="1">
          <mxGeometry x="820" y="660" width="40" height="40" as="geometry" />
        </mxCell>
        <mxCell id="8VEoWzWvntJiqpH7d6k4-172" value="0" style="shape=ext;double=1;rounded=0;whiteSpace=wrap;html=1;fillColor=#ffe6cc;strokeColor=none;" vertex="1" parent="1">
          <mxGeometry x="940" y="660" width="40" height="40" as="geometry" />
        </mxCell>
        <mxCell id="8VEoWzWvntJiqpH7d6k4-173" value="0" style="shape=ext;double=1;rounded=0;whiteSpace=wrap;html=1;fillColor=#ffe6cc;strokeColor=none;" vertex="1" parent="1">
          <mxGeometry x="880" y="660" width="40" height="40" as="geometry" />
        </mxCell>
        <mxCell id="8VEoWzWvntJiqpH7d6k4-174" value="0" style="shape=ext;double=1;rounded=0;whiteSpace=wrap;html=1;fillColor=#ffe6cc;strokeColor=none;" vertex="1" parent="1">
          <mxGeometry x="1000" y="660" width="40" height="40" as="geometry" />
        </mxCell>
        <mxCell id="8VEoWzWvntJiqpH7d6k4-175" value="0" style="shape=ext;double=1;rounded=0;whiteSpace=wrap;html=1;fillColor=#ffe6cc;strokeColor=none;" vertex="1" parent="1">
          <mxGeometry x="1060" y="660" width="40" height="40" as="geometry" />
        </mxCell>
        <mxCell id="8VEoWzWvntJiqpH7d6k4-176" value="0" style="shape=ext;double=1;rounded=0;whiteSpace=wrap;html=1;fillColor=#ffe6cc;strokeColor=none;" vertex="1" parent="1">
          <mxGeometry x="160" y="660" width="40" height="40" as="geometry" />
        </mxCell>
        <mxCell id="8VEoWzWvntJiqpH7d6k4-177" value="0" style="shape=ext;double=1;rounded=0;whiteSpace=wrap;html=1;fillColor=#ffe6cc;strokeColor=none;" vertex="1" parent="1">
          <mxGeometry x="220" y="660" width="40" height="40" as="geometry" />
        </mxCell>
        <mxCell id="8VEoWzWvntJiqpH7d6k4-178" value="&lt;b&gt;&lt;font style=&quot;font-size: 15px&quot; color=&quot;#ff0000&quot;&gt;1&lt;/font&gt;&lt;/b&gt;" style="shape=ext;double=1;rounded=0;whiteSpace=wrap;html=1;fillColor=#ffe6cc;strokeColor=none;" vertex="1" parent="1">
          <mxGeometry x="280" y="660" width="40" height="40" as="geometry" />
        </mxCell>
        <mxCell id="8VEoWzWvntJiqpH7d6k4-179" value="0" style="shape=ext;double=1;rounded=0;whiteSpace=wrap;html=1;fillColor=#ffe6cc;strokeColor=none;" vertex="1" parent="1">
          <mxGeometry x="340" y="660" width="40" height="40" as="geometry" />
        </mxCell>
        <mxCell id="8VEoWzWvntJiqpH7d6k4-180" value="0" style="shape=ext;double=1;rounded=0;whiteSpace=wrap;html=1;fillColor=#ffe6cc;strokeColor=none;" vertex="1" parent="1">
          <mxGeometry x="400" y="660" width="40" height="40" as="geometry" />
        </mxCell>
        <mxCell id="8VEoWzWvntJiqpH7d6k4-181" value="0" style="shape=ext;double=1;rounded=0;whiteSpace=wrap;html=1;fillColor=#ffe6cc;strokeColor=none;" vertex="1" parent="1">
          <mxGeometry x="460" y="660" width="40" height="40" as="geometry" />
        </mxCell>
        <mxCell id="8VEoWzWvntJiqpH7d6k4-182" value="0" style="shape=ext;double=1;rounded=0;whiteSpace=wrap;html=1;fillColor=#ffe6cc;strokeColor=none;" vertex="1" parent="1">
          <mxGeometry x="520" y="660" width="40" height="40" as="geometry" />
        </mxCell>
        <mxCell id="8VEoWzWvntJiqpH7d6k4-183" value="0" style="shape=ext;double=1;rounded=0;whiteSpace=wrap;html=1;fillColor=#ffe6cc;strokeColor=none;" vertex="1" parent="1">
          <mxGeometry x="580" y="660" width="40" height="40" as="geometry" />
        </mxCell>
        <mxCell id="8VEoWzWvntJiqpH7d6k4-184" value="0" style="shape=ext;double=1;rounded=0;whiteSpace=wrap;html=1;fillColor=#ffe6cc;strokeColor=none;" vertex="1" parent="1">
          <mxGeometry x="640" y="660" width="40" height="40" as="geometry" />
        </mxCell>
        <mxCell id="8VEoWzWvntJiqpH7d6k4-185" value="0" style="shape=ext;double=1;rounded=0;whiteSpace=wrap;html=1;fillColor=#ffe6cc;strokeColor=none;" vertex="1" parent="1">
          <mxGeometry x="700" y="660" width="40" height="40" as="geometry" />
        </mxCell>
        <mxCell id="8VEoWzWvntJiqpH7d6k4-186" value="0" style="shape=ext;double=1;rounded=0;whiteSpace=wrap;html=1;fillColor=#ffe6cc;strokeColor=none;" vertex="1" parent="1">
          <mxGeometry x="760" y="660" width="40" height="40" as="geometry" />
        </mxCell>
        <mxCell id="8VEoWzWvntJiqpH7d6k4-203" value="0" style="shape=ext;double=1;rounded=0;whiteSpace=wrap;html=1;fillColor=#ffe6cc;strokeColor=none;" vertex="1" parent="1">
          <mxGeometry x="160" y="620" width="40" height="40" as="geometry" />
        </mxCell>
        <mxCell id="8VEoWzWvntJiqpH7d6k4-204" value="" style="endArrow=classic;html=1;exitX=1;exitY=0.5;exitDx=0;exitDy=0;entryX=1;entryY=0.5;entryDx=0;entryDy=0;" edge="1" parent="1" source="8VEoWzWvntJiqpH7d6k4-122" target="8VEoWzWvntJiqpH7d6k4-138">
          <mxGeometry width="50" height="50" relative="1" as="geometry">
            <mxPoint x="580" y="600" as="sourcePoint" />
            <mxPoint x="630" y="550" as="targetPoint" />
            <Array as="points">
              <mxPoint x="1130" y="500" />
              <mxPoint x="1130" y="690" />
              <mxPoint x="1130" y="860" />
            </Array>
          </mxGeometry>
        </mxCell>
      </root>
    </mxGraphModel>
  </diagram>
</mxfile>
